<svg
   viewBox="0 0 17 17"
   version="1.1"
   xmlns="http://www.w3.org/2000/svg">
  <circle
     cx="8.5"
     cy="8.5"
     id="ellipse2"
     stroke-width="1.03077"
     r="8.5" />
  <path
     d="m 9.68919,3.8029319 c -0.65406,0 -1.18919,0.52842 -1.18919,1.174266 0,0.6458501 0.53513,1.17427 1.18919,1.17427 0.65405,0 1.18919,-0.5284199 1.18919,-1.17427 0,-0.6458459 -0.53514,-1.174266 -1.18919,-1.174266 z M 7.9054,6.7385979 c -0.98702,0 -1.78378,0.7867601 -1.78378,1.7614001 h 1.18919 c 0,-0.3287899 0.26162,-0.5871301 0.59459,-0.5871301 0.33298,0 0.5946,0.2583402 0.5946,0.5871301 0,0.32879 -1.18919,1.9258 -1.18919,2.93567 0,1.00987 0.79676,1.7614 1.78378,1.7614 0.98703,0 1.78379,-0.78676 1.78379,-1.7614 H 9.68919 c 0,0.32879 -0.26162,0.58713 -0.5946,0.58713 -0.33297,0 -0.59459,-0.25834 -0.59459,-0.58713 0,-0.42274 1.18919,-2.1606499 1.18919,-2.93567 0,-0.95116 -0.79676,-1.7614001 -1.78379,-1.7614001 z"
     id="path4"
     fill="#fff"
  />
</svg>
