<svg xmlns="http://www.w3.org/2000/svg" viewBox="0 0 1195 337">
<path d="M148.761 197.231c9.225-.417 13.289 2.153 15.501 9.444 1.566 5.164-1.107 11.261-6.373 15.359-8.816 6.861-15.596 15.035-14.794 27.063.315 4.731 1.521 9.413 2.459 14.089 1.378 6.866-.106 13.033-5.383 17.589-5.589 4.825-12.256 6.217-19.26 3.127-6.884-3.037-10.323-8.901-10.668-16.058-.282-5.843 2.548-10.883 7.277-14.529 2.869-2.211 5.837-4.328 8.932-6.203 10.342-6.266 15.851-19.987 12.778-31.876-1.832-7.087 1.881-13.806 9.532-18.006zm94.005 11.03c-6.244-6.65-13.414-10.038-22.38-9.367-4.145.31-8.33.145-12.496.087-5.379-.074-10.109-3.562-11.628-8.445-1.437-4.618.483-11.496 3.923-14.05 4.193-3.114 10.89-3.643 14.921-.651a38.09 38.09 0 0 1 7.34 7.215c10.004 12.948 23.194 13.817 37.685 10.444 13.568-3.158 24.283 5.003 23.861 18.041-.232 7.188-5.573 14.073-12.552 16.181-6.615 1.998-15.176-.784-19.212-6.317l-9.462-13.138zm-129.124 28.415c-13.476 3.676-20.127 12.74-22.71 25.619-1.474 7.352-2.28 15.199-10.076 19.413-6.179 3.341-12.496 3.66-18.322-.095-6.071-3.912-9.518-9.735-8.455-17.309.978-6.967 4.938-11.94 11.544-14.217 6.342-2.186 13.036-3.36 19.351-5.608 8.363-2.978 13.261-9.459 16.009-17.731 1.088-3.274 2.113-6.603 3.587-9.707 2.329-4.902 8.011-8.364 12.241-7.88 6.351.727 10.65 4.561 12.006 10.71 1.018 4.612-1.655 10.369-6.634 13.281-2.521 1.474-5.448 2.252-8.541 3.526zm72.352 71.158c-.823 7.817-4.388 13.061-11.659 15.452-7.743 2.546-15.153.756-19.979-5.605-4.32-5.695-4.824-12.242-1.731-18.708 1.914-4 4.319-7.786 6.73-11.522 6.339-9.823 6.012-19.81 1.385-30.169-1.916-4.291-3.705-8.771-4.603-13.351-1.127-5.749 2.631-9.2 7.335-11.688 4.737-2.505 9.109-1.3 12.915 1.82 4.216 3.456 5.614 8.23 4.197 13.437-.856 3.146-2.305 6.207-3.929 9.054-6.532 11.449-5.24 22.203 1.933 32.928 3.609 5.395 8.11 10.647 7.404 18.353zm33.173-146.638c-5.378 4.905-10.977 6.683-17.454 3.079-4.785-2.663-6.95-8.095-5.628-14.117 1.037-4.722 6.082-8.995 11.088-9.118 4.996-.123 10.002-.113 14.997.04 10.09.308 17.168-4.734 23.009-12.371 3.679-4.81 7.12-10.045 11.689-13.87 5.946-4.978 14.208-3.959 21.057 1.181 5.349 4.014 7.486 12.127 5.086 19.311-2.45 7.334-8.567 11.906-16.499 11.58-5.752-.236-11.473-1.251-17.205-1.944-13.692-1.654-22.501 5.823-30.14 16.229zM140.594 59.374c6.348 6.884 6.116 14.505 3.92 22.568-2.532 9.295-2.345 18.451 3.737 26.422 2.782 3.646 6.398 6.736 9.961 9.684 4.486 3.713 7.577 10.25 6.382 14.69-1.951 7.242-7.159 10.972-14.277 10.227-5.739-.601-11.067-6.88-11.239-13.761-.082-3.267.749-6.547.898-9.833.586-12.938-5.767-21.899-16.324-28.565-5.568-3.516-10.846-7.129-12.84-14.314-1.888-6.805 2.08-15.426 7.111-18.749 5.915-3.907 12.207-4.445 18.573-.873 1.288.723 2.532 1.525 4.099 2.504zM67.081 90.076c-10.553-3.36-13.394-12.559-12.978-18.159.627-8.433 8.161-15.601 16.968-16.742 8.419-1.091 17.004 6.48 18.998 16.055 1.301 6.245 2.744 12.656 5.451 18.364 3.587 7.562 10.719 11.226 18.639 13.521a36.82 36.82 0 0 1 9.79 4.48c5.089 3.331 6.16 8.555 4.624 14.077-1.29 4.636-4.74 7.441-9.564 8.293-6.208 1.097-10.701-1.707-13.788-6.736-1.523-2.481-2.461-5.403-3.245-8.241-3.798-13.745-13.393-20.578-26.86-22.995-2.576-.462-5.099-1.222-8.034-1.915zm249.486 66.256c8.392 7.611 7.758 17.607 3.762 23.603-5.649 8.477-15.043 10.36-24.505 5.402-6.667-3.494-13.221-7.262-20.102-10.274-6.409-2.804-12.609-.24-18.564 2.342-3.324 1.441-6.478 3.316-9.871 4.547-6.066 2.201-12.113.128-15.699-5.007-2.575-3.687-2.058-10.999 1.056-14.945 2.9-3.674 10.541-5.361 15.578-3.251 3.949 1.654 7.731 3.715 11.698 5.32 9.479 3.836 18.287 2.166 26.834-3.145 4.84-3.007 9.942-5.763 15.244-7.806 5.065-1.951 9.956-.159 14.571 3.213zm-287.983-4.241c9.432-1.35 15.703 4.538 22.477 8.706 9.721 5.981 19.348 6.805 29.517 1.439 3.35-1.768 6.824-3.408 10.411-4.592 6.192-2.043 12.515 1.02 15.241 6.985 2.446 5.353.575 12.974-4.513 15.832-4.723 2.653-9.754 2.081-14.815.043-6.049-2.436-12.161-5.088-18.504-6.323-6.719-1.309-12.93 1.542-18.618 5.311-3.571 2.367-7.28 4.565-11.085 6.532-8.562 4.426-19.367-.934-22.879-8.555-4.07-8.832-.847-18.874 7.834-23.307 1.469-.75 3.01-1.359 4.934-2.071zm137.275-43.724c-8.77-1.656-13.017-11.484-6.364-23.276 1.763-3.125 3.308-6.444 4.435-9.845 3.178-9.598-.939-17.681-5.74-25.574-2.055-3.379-4.312-6.694-5.882-10.296-2.962-6.794-1.088-13.083 3.519-18.399 4.449-5.135 13.231-6.753 19.479-4.213 7.208 2.931 11.464 8.773 11.22 16.024-.169 5.029-3.153 10.266-5.85 14.837-4.251 7.207-8.85 14.265-7.544 23.002.689 4.606 2.916 8.974 4.356 13.478 1.239 3.877 3.117 7.749 3.355 11.706.53 8.799-5.673 13.874-14.985 12.555zM78.998 226.355c-8.542 3.066-15.943 2.274-21.89-4.765-4.621-5.468-5.14-11.646-2.743-18.1 2.2-5.922 8.908-10.702 15.051-10.409 7.738.369 15.44 1.669 23.176 1.87 8.182.212 14.62-3.518 20.095-9.764 4.553-5.195 8.656-11.696 17.173-11.202 6.752.392 11.063 4.67 11.141 11.35.098 8.389-3.756 13.324-10.94 13.614-5.152.208-10.318.014-15.478.059-9.447.082-16.561 4.304-22.192 11.832-4.007 5.356-8.701 10.199-13.393 15.515zm33.39-85.332l15.93-.015c6.032.027 11.307 3.393 12.51 7.922 1.598 6.02-.632 12.945-5.012 15.562-4.636 2.77-11.772 1.89-16.037-2.28-3.657-3.576-6.722-7.813-10.615-11.083-9.445-7.932-20.376-7.134-31.501-4.558-10.373 2.402-20.141-1.927-23.404-10.213-3.284-8.34.116-18.077 7.799-22.331 7.984-4.421 18.263-1.809 23.844 5.624 4.214 5.612 8.414 11.424 13.6 16.047 3.188 2.842 8.222 3.614 12.886 5.325zm103.418 143.026c-12.325 4.454-23.052-2.99-24.552-15.484-.51-4.245.933-8.801 1.875-13.129 2.723-12.51-.721-22.617-10.724-30.792-3.525-2.881-6.957-6.461-8.964-10.458-2.298-4.577-1.439-9.76 2.589-13.589 3.614-3.436 8.035-4.606 12.867-3.058 5.715 1.831 8.393 6.182 9.02 11.894.235 2.138.35 4.389-.047 6.481-2.759 14.5 3.021 24.772 14.936 32.778 4.77 3.205 9.592 7.421 12.326 12.327 4.872 8.744.876 17.472-9.324 23.031zM247.251 98.18c-6.417 3.832-9.058 9.797-11.295 16.135-1.303 3.69-2.458 7.667-4.739 10.724-4.09 5.482-9.032 6.757-14.275 4.863-4.913-1.774-8.936-7.258-8.83-12.037.105-4.727 4.775-10.828 9.828-12.728 4.612-1.734 9.449-2.993 13.843-5.159 10.347-5.1 13.105-15.066 15.184-25.254 1.169-5.73 2.523-11.349 7.3-15.263 5.327-4.364 14.833-4.946 21.372-.608 5.277 3.5 8.739 10.749 7.214 18.269-1.466 7.232-6.445 11.606-13.397 13.814l-22.206 7.243zm-49.394 25.167c-.237 3.893-.074 7.447-.919 10.743-1.396 5.438-5.503 8.525-10.658 8.89-5.443.386-10.289-2.157-12.406-6.51-2.554-5.25-1.831-10.909 2.222-14.999 3.489-3.521 7.509-6.547 10.781-10.246 7.843-8.867 8.573-19.261 5.659-30.243-2.039-7.683-2.062-14.957 4.06-21.092 7.39-7.404 18.969-7.081 25.694.766 7.199 8.401 5.992 19.692-2.82 26.085l-11.679 8.309c-7.949 5.721-12.486 18.407-9.933 28.297zm75.54 159.364c-14.279 4.506-23.821-1.448-26.455-15.853-1.934-10.577-4.923-20.845-15.286-26.407-4.586-2.461-9.822-3.696-14.721-5.595-8.101-3.141-13.087-14.488-4.304-22.055 5.98-5.153 15.095-3.566 19.4 3.86 1.224 2.112 2.309 4.436 2.833 6.801 3.282 14.817 13.174 22.069 27.452 24.552 8.514 1.481 16.543 3.689 19.665 13.298 2.668 8.211-.019 15.378-8.584 21.399zm442.48-222.023c6.006-3.565 12.049-4.308 18.253-1.984 7.528 2.82 11.276 10.528 9.804 19.606-1.043 6.431-8.237 12.394-15.297 12.679-11.251.455-17.102-3.646-19.107-14.279-1.169-6.205.834-11.748 6.347-16.022z"/>
<path d="M625.764 116.233l7.296 5.81v-65.67h29.544v171.57c-8.175 0-16.434.158-24.67-.2-1.034-.045-2.621-2.74-2.786-4.329-.406-3.907-.133-7.885-.133-13.25-1.998 2.585-3.017 4.217-4.334 5.556-9.279 9.432-20.123 14.935-33.766 15.437-15.137.558-28.178-4.039-39.027-14.102-9.837-9.124-15.442-20.966-17.694-34.159-2.916-17.085-1.466-33.831 7.058-49.158 9.782-17.589 24.629-27.442 45.373-27.837 12.212-.233 23.28 2.273 33.138 10.331m-46.254 81.803c16.85 14.348 40.358 6.977 48.555-10.069 5.538-11.515 5.569-23.48 1.648-35.219-4.356-13.04-14.588-20.166-27.807-21.399-10.223-.953-19.49 3.121-26.169 11.473-11.922 14.907-10.307 41.061 3.774 55.213zm-74.716-1.03l.212 20.984c.124 3.2-1.051 5.133-3.982 5.928-8.565 2.324-17.045 5.738-25.763 6.562-20.146 1.904-40.266 1.517-57.457-11.636-12.184-9.322-19.84-21.728-22.577-36.805-3.283-18.087-.937-35.378 9.778-50.76 11.424-16.401 27.165-24.85 47.386-25.387 14.317-.38 27.123 2.794 38.345 12.003 9.239 7.581 14.928 17.399 16.995 28.822 1.571 8.684 1.188 17.721 1.705 27.159h-83.783c-.122 18.462 13.419 29.648 29.72 31.263 16.939 1.679 32.713-1.925 48.398-8.849.652.367.832.548 1.024.715m-78.681-45.194l-.341 4.831h53.819c1.356-11.244-6.432-22.753-17.036-25.597-16.343-4.383-30.448 3.432-36.442 20.766zm527.097-45.806c14.438-.799 28.014.537 40.167 8.204 15.602 9.843 25.622 23.584 28.635 42.079 2.437 14.956 1.295 29.546-6.2 42.851-11.299 20.058-28.466 31.013-51.895 31.945-15.594.62-29.86-2.528-42.529-11.966-12.833-9.561-20.298-22.48-23.261-37.943-2.611-13.625-1.061-26.894 4.608-39.73 6.642-15.04 17.631-25.456 32.788-31.294 5.459-2.103 11.458-2.803 17.686-4.146m2.163 99.092c3.558-.023 7.179.37 10.663-.15 9.482-1.418 16.992-6.359 22.095-14.408 7.347-11.586 8.13-24.136 3.632-36.859-7.908-22.369-36.361-30.196-54.646-13.315-10.155 9.376-12.264 21.563-11.048 34.568 1.409 15.078 14.351 28.563 29.304 30.165zm211.513 22.905h-22.866v-6.024l-.089-66.968c-.026-3.553-.772-7.223-1.857-10.624-3.423-10.731-13.295-12.684-22.202-11.122-16.812 2.948-27.864 16.854-27.885 34.142l-.006 53.975v6.253h-29.587V109.449h27.466v18.59c6.072-5.226 11.834-10.549 17.974-15.394 11.379-8.978 38.992-9.502 51.215.349 8.09 6.52 11.926 15.206 13.836 24.946.821 4.188 1.05 8.546 1.068 12.828l.047 70.467v6.766h-7.115zm-353.74-50.092c-11.385-4.057-21.663-8.958-28.207-19.455-6.755-10.835-4.746-29.635 3.961-38.952 8.864-9.484 19.863-13.106 32.436-13.543 12.367-.429 24.414.86 36.154 4.986 3.338 1.173 4.736 2.807 4.588 6.461-.283 6.975-.082 13.97-.082 20.83-7.996-2.221-15.582-5.129-23.425-6.267-6.903-1.002-14.167-.6-21.131.286-4.449.566-8.073 3.621-8.632 8.902-.5 4.721 1.574 8.172 5.63 9.966 6.59 2.915 13.526 5.05 20.108 7.98 7.501 3.34 15.316 6.395 22.043 10.972 18.499 12.585 16.544 42.86-3.035 54.038-8.084 4.616-16.749 6.687-26.029 6.937-14.187.382-28.075-.723-41.499-5.865-2.991-1.145-4.153-2.443-4.067-5.62.199-7.314.063-14.637.063-22.029 8.797 2.696 17.097 6.126 25.732 7.622 7.82 1.355 16.096 1.416 24.002.534 7.145-.797 11.191-7.234 9.03-13.068-1.008-2.721-3.774-5.52-6.448-6.752-6.72-3.094-13.842-5.315-21.191-7.964zm-72.151 50.88c-9.024.035-18.049.071-27.668-.086-.772-.376-.961-.546-1.161-.703l.089-118.668c.402-.753.582-.933.75-1.125l27.665.093c.766.376.951.546 1.148.703l-.088 118.663c-.394.753-.571.931-.735 1.123z"/>
</svg>