<svg xmlns="http://www.w3.org/2000/svg" xmlns:xlink="http://www.w3.org/1999/xlink" viewBox="0 0 54.8 55.2"><circle cx="27.3" cy="27.7" r="27.2" fill="#192e54"/><g fill="#fff"><path d="M9.5 38.3c0-.1.1-.2.2-.2h.6v-3.7h-.6-.1v-.1-.2h.6v-.6c0-.5.1-.8.4-1.1.2-.3.6-.4 1-.4.2 0 .4 0 .5.1v.2.1c0 .1-.1 0-.1 0h-.3c-.7 0-1 .4-1 1.2v.6h1.5v.2h-1.4v3.7h.6c.1 0 .2.1.2.2v.2H9.7v-.2h-.2zm4.5.7c0 .3-.1.6-.3.8s-.5.3-.8.3c-.2 0-.3 0-.4-.1v-.2c0-.1.1-.1.2-.1h.1.1c.5 0 .7-.3.7-.8v-4.7h-.5c-.1 0-.2-.1-.2-.2v-.2H14V39zm-.5-6.3c-.1-.1-.1-.2-.1-.3s0-.2.1-.3.2-.1.3-.1.2 0 .3.1.1.2.1.3 0 .2-.1.3-.2.1-.3.1-.2 0-.3-.1zm4.9 1.7c.3.4.5.8.5 1.4 0 .1 0 .2-.1.2h-3.2c0 .7.1 1.2.4 1.6s.7.6 1.2.6c.2 0 .5 0 .7-.1l.6-.3.1-.1h.1l.1.1c-.2.2-.4.3-.7.5s-.6.2-.9.2c-.7 0-1.2-.2-1.5-.7-.4-.4-.5-1-.5-1.7 0-.4.1-.8.2-1.1.2-.3.4-.6.7-.8s.7-.3 1.1-.3c.5 0 .9.2 1.2.5zm-2.3.2c-.3.3-.4.7-.5 1.1h3c0-.5-.1-.8-.4-1.1s-.6-.4-1-.4c-.5 0-.9.2-1.1.4zm8.5 3.7v.2h-1.1v-2.9c0-.4-.1-.8-.3-1s-.5-.4-.9-.4c-.6 0-1.1.3-1.5.8v3h.5c.1 0 .2.1.2.2v.2h-1.7v-.2c0-.1.1-.2.2-.2h.5v-3.8H20h-.1v-.1-.2h.9c.1 0 .1 0 .1.1v.7c.5-.6 1-.9 1.6-.9.5 0 .9.2 1.1.5.3.3.4.7.4 1.2V38h.5c0 .1.1.2.1.3zm4.2.2c-.1 0-.1 0 0 0l-.1-.8c-.4.6-1 .9-1.6.9s-1-.2-1.3-.6-.4-1-.4-1.7c0-.4.1-.8.2-1.2a1.85 1.85 0 0 1 .7-.8c.3-.2.6-.3 1.1-.3.6 0 1 .2 1.4.7v-2.3h-.5c-.1 0-.2-.1-.2-.2V32h1.1v6.2h.4c.1 0 .2.1.2.2v.2l-1-.1h0zm-1.5-4.3c-.5 0-.9.2-1.2.6s-.4.9-.4 1.4c0 1.3.5 2 1.4 2 .6 0 1-.3 1.5-.9v-2.4c-.3-.4-.7-.7-1.3-.7zm3.9 4.1c-.2-.2-.2-.4-.2-.8v-3.1h-.6-.1v-.1-.2l.8-.1.1-1.6v-.1h.1.2V34h1.4v.4h-1.4v3c0 .2.1.4.2.5s.3.2.5.2.4-.1.6-.3h.1s.1 0 .1.1l.1.2c-.1.1-.3.2-.4.3s-.4.1-.5.1c-.6 0-.9 0-1-.2zm4.2 0v.2h-1.7v-.2c0-.1.1-.2.2-.2h.5v-5.9h-.5c-.1 0-.2-.1-.2-.2v-.2h1.1V38h.5c0 .1.1.2.1.3zm2.5 0v.2h-1.7v-.2c0-.1.1-.2.2-.2h.5v-3.8h-.5c-.1 0-.2-.1-.2-.2v-.2h1.1V38h.5c0 .1.1.2.1.3zm-1.1-5.6c-.1-.1-.1-.2-.1-.3s0-.2.1-.3.2-.1.3-.1.2 0 .3.1.1.2.1.3 0 .2-.1.3-.2.1-.3.1c-.2 0-.3 0-.3-.1zM41 34c.2 0 .3.1.5.2h1.2v.2c0 .1 0 .1-.1.1l-.7.1a.76.76 0 0 1 .2.4c0 .1.1.3.1.4 0 .4-.1.8-.4 1s-.7.4-1.2.4c-.3 0-.5 0-.7-.1-.1.1-.2.1-.3.2s-.1.2-.1.3c0 .2.1.3.2.3.1.1.3.1.5.1s.5 0 .9.1a3.73 3.73 0 0 1 1.2.2c.3.1.4.4.4.7s-.1.5-.3.8c-.2.2-.4.4-.8.5-.3.1-.6.2-1 .2-.5 0-1-.1-1.4-.3s-.6-.5-.6-.9c0-.2.1-.5.2-.6.2-.2.4-.3.6-.4-.2-.1-.3-.1-.4-.2s-.1-.2-.1-.4.1-.3.2-.4.2-.2.4-.3c-.2-.1-.4-.3-.5-.5s-.2-.4-.2-.7c0-.4.2-.8.5-1.1s.7-.4 1.1-.4c.2 0 .4 0 .6.1zm.7 4.3c-.2-.1-.6-.1-1-.2-.5 0-.8 0-1-.1-.3.1-.4.2-.6.4s-.2.3-.2.5c0 .3.2.6.5.7.3.2.7.2 1.1.2s.8-.1 1.1-.3.5-.4.5-.8c0-.2-.1-.4-.4-.4zm-.4-2.1c.2-.2.3-.5.3-.8s-.1-.6-.3-.8-.5-.3-.9-.3-.7.1-.9.3c-.2.1-.3.4-.3.8 0 .3.1.6.3.8s.5.3.9.3.7-.1.9-.3zM14.6 18.5c0 .6-.2 1.1-.6 1.4-.4.4-.9.6-1.6.6-.3 0-.6 0-.9-.1-.2 0-.5-.1-.7-.2l-.3-.1v-1.6h.4c.1 0 .2.1.2.2v.4.4c.5.2.8.3 1.1.3s.5 0 .7-.1.3-.1.4-.2c.2-.2.3-.5.3-.9 0-.3-.2-.6-.5-.8-.1-.1-.3-.2-.5-.2-.6-.2-1-.3-1.1-.4-.2-.1-.3-.2-.5-.3-.3-.3-.5-.7-.5-1.2s.2-.9.5-1.2c.4-.4.9-.5 1.4-.5.6 0 1.2.1 1.8.4v1.5h-.4c-.1 0-.2-.1-.2-.2v-.2-.6c-.4-.1-.8-.2-1.1-.2-.4 0-.7.1-.9.3s-.3.4-.3.7.2.6.5.7c.1.1.3.2.5.2l1.1.4h0c.9.4 1.2.8 1.2 1.5zm1.3 1.8c-.2-.2-.3-.5-.3-.9v-2.8h-.5-.1v-.1-.3l.7-.1.2-1.4s0-.1.1-.1h.1.4v1.6h1.3v.6h-1.3v2.7c0 .2 0 .3.1.4s.2.1.4.1h.2c.1 0 .1 0 .2-.1h.1.1.1s.1 0 .1.1l.2.4c-.2.1-.3.2-.5.3s-.4.1-.6.1c-.5-.2-.8-.3-1-.5z"/><path d="M23.8 16c.2.1.4.2.5.4.2.2.3.4.4.7.1.2.1.5.1.9v.3l-.1.1h-2.8c0 .3.1.5.1.7.1.2.2.4.3.5a1.38 1.38 0 0 0 .4.3.9.9 0 0 0 .5.1c.2 0 .4 0 .5-.1.2 0 .3-.1.4-.1.1-.1.2-.1.2-.2 0 0 .1-.1.2-.1h.1l.1.1.2.3-.3.3a.76.76 0 0 1-.4.2c-.2.1-.3.1-.5.1h-.5a1.69 1.69 0 0 1-1-.3 1.85 1.85 0 0 1-.7-.8c-.1.2-.2.4-.3.5s-.3.2-.4.3c-.2.1-.3.1-.5.2-.2 0-.4.1-.5.1-.2 0-.4 0-.6-.1s-.3-.1-.5-.2c-.1-.1-.2-.2-.3-.4-.1-.1-.1-.3-.1-.6 0-.2.1-.3.2-.5s.2-.3.5-.5c.2-.1.5-.2.9-.3.3-.1.7-.1 1.3-.1v-.2c0-.4-.1-.6-.2-.8-.2-.2-.4-.3-.7-.3-.2 0-.3 0-.5.1s-.3.1-.4.2l-.3.2c-.1.1-.1.1-.2.1h-.1c-.1 0-.1-.1-.1-.1l-.1-.3c.2-.2.5-.4.8-.5s.6-.2.9-.2c.4 0 .6.1.9.2.2.2.4.4.5.6.2-.3.4-.5.6-.6.3-.1.6-.2.9-.2h0c.1-.1.3-.1.6 0zm-3.7 2.4c-.3.1-.5.1-.6.2a1.38 1.38 0 0 0-.4.3c-.1.1-.1.2-.1.4s.1.4.2.6c.1.1.3.2.6.2.2 0 .3 0 .5-.1s.3-.1.4-.3c.1-.1.2-.2.3-.4s.1-.3.1-.6v-.4c-.4 0-.7.1-1 .1zm2.5-1.8c-.1.1-.3.1-.4.3-.1.1-.2.2-.2.4-.1.2-.1.4-.1.6h2.3c0-.2 0-.4-.1-.5 0-.2-.1-.3-.2-.4l-.3-.3c-.1-.1-.3-.1-.4-.1h0c-.3-.1-.5-.1-.6 0zm5.6-.8c.2 0 .4.1.6.2l-.1.6c0 .1-.1.1-.1.1h-.2-.4c-.5 0-.9.3-1.2 1v2.2l.5.1c.1 0 .1.1.1.2v.4h-2.1v-.4c0-.1 0-.2.1-.2l.5-.1v-3.2c-.3-.1-.5-.1-.5-.1-.1 0-.1-.1-.1-.2V16h1.1.2s.1.1.1.2l.1.7h0c.3-.7.8-1.1 1.4-1.1zm5.7 4.3v.4h-.8c-.1 0-.2-.1-.3-.2l-1.5-1.9c0-.1-.1-.1-.1-.1H31h-.2v1.5s.1 0 .3.1h.2c.1 0 .1.1.1.2v.4h-2.2v-.4c0-.1 0-.2.1-.2l.5-.1v-5.3c-.3-.1-.5-.1-.5-.1-.1 0-.1-.1-.1-.2v-.4h1.5v3.9h.2c.1 0 .2 0 .3-.1l1-1.1h-.1-.1-.1c-.1 0-.1-.1-.1-.2v-.4h1.9v.4c0 .1 0 .1-.1.2l-.6.1-1.1 1.1c-.1.1-.2.2-.3.2l.3.3 1.3 1.6h.2c.2 0 .3.1.3.1h0c.2 0 .2.1.2.2zm-7.2 2.8h6v.7c0 .2-.1.3-.3.4h-.1-.2l-.3.1v6l.3.1h.1.1.1c.2 0 .3.2.3.4v.7h-3.3v-.7c0-.2.1-.3.3-.4h.1.2l.3-.1v-5.9h-2.7v.5c0 .1-.1.2-.3.2h-.6v-2zm-3.6.6v-.7h3.1v.7c0 .2-.1.3-.3.4h-.1-.2l-.3.1v3.6l.3.1h.1.1.1c.2 0 .3.2.3.4v.7h-2.3V24l-.3-.1h-.1-.1-.1c-.1-.1-.2-.2-.2-.4zm.7 6.6c0-.1.1-.2.2-.3s.2-.2.3-.2.2-.1.4-.1c.1 0 .2 0 .4.1.1 0 .2.1.3.2s.1.2.2.3c0 .1.1.2.1.3s0 .2-.1.4c0 .1-.1.2-.2.3s-.2.1-.3.2c-.2.1-.3.1-.4.1s-.2 0-.4-.1c-.1 0-.2-.1-.3-.2s-.2-.2-.2-.3c-.1-.1-.1-.2-.1-.4s.1-.2.1-.3z"/><use xlink:href="#B"/><use xlink:href="#B" x="-3.6"/><path d="M11.7 28.7c-.3-.1-.6-.3-.8-.5s-.4-.5-.5-.8-.2-.7-.2-1.1V26v-.2s0-.1.1-.1h.2 3.7c0-.6-.2-1-.5-1.3s-.7-.4-1.1-.4c-.2 0-.4 0-.6.1s-.3.1-.4.2c-.1 0-.1.1-.2.1s-.1.1-.2.1c-.1-.1-.2-.1-.3-.1h-.2s-.1 0-.1-.1l-.4-.6.5-.5.6-.3c.2-.1.4-.1.7-.1h.6c.4 0 .8.1 1.1.2s.6.3.9.6.5.6.6 1 .2.8.2 1.4c0 .4-.1.8-.2 1.1s-.3.7-.6.9c-.2.3-.5.5-.9.6-.4.2-.8.2-1.2.2-.1 0-.5 0-.8-.1zm2-1.2a1.53 1.53 0 0 0 .4-1h-2.7a.9.9 0 0 0 .1.5.76.76 0 0 0 .2.4 1.38 1.38 0 0 0 .4.3c.2.1.4.1.6.1a1.69 1.69 0 0 0 1-.3zm23.8-2.1v.5c0 .1-.1.2-.2.2-.2 0-.4.1-.6.1v2.3h1.9v-2.3h1v2.3h1.8v-.3-.1-.1-.1c0-.1.1-.2.3-.2h.5v2.6h-.5c-.1 0-.2-.1-.3-.2V30v-.1-.1-.3h-4.7v.3.1.1.1c0 .2-.1.2-.3.2h-.5v-5l1.6.1h0z"/><path d="M41.8 22.7h.5v2.5h-.5c-.1 0-.2-.1-.3-.2v-.1-.1-.3h-4.9v.3.1.1.1c0 .2-.1.2-.3.2h-.5v-1.8h5.8v-.3-.1-.1c-.1-.3 0-.3.2-.3zm-4-3.6c.1-.3.3-.5.5-.7s.4-.3.7-.5c.3-.1.6-.2 1-.2s.7.1 1 .2.6.3.8.5.4.4.5.7.2.6.2.9a2.39 2.39 0 0 1-.2.9c-.1.3-.3.5-.5.7s-.5.4-.8.5-.6.2-1 .2-.7-.1-1-.2-.5-.3-.7-.5-.4-.4-.5-.7-.2-.6-.2-.9.1-.6.2-.9zm3.3.1c-.3-.2-.6-.3-1.1-.3s-.9.1-1.1.3c-.3.2-.4.5-.4.8s.1.7.4.9.6.3 1.1.3.9-.1 1.1-.3c.3-.2.4-.5.4-.9 0-.3-.1-.6-.4-.8zm.9-2.7c-.2.2-.5.3-.9.3h-2.6v.5s0 .1-.1.2c0 0-.1.1-.2.1h-.4l-.1-.7-1.3-.2c-.1 0-.1 0-.1-.1s-.1-.1-.1-.2v-.6h1.5v-1.2h.8v1.2H41c.1 0 .2 0 .3-.1s.1-.2.1-.3v-.2l-.1-.1-.1-.1v-.1-.1l.1-.1.5-.3c.1.2.2.3.3.6.1.2.1.4.1.6.2.4 0 .7-.2.9z"/></g><defs ><path id="B" d="M19.5 23.5v-.7h3.2v.7c0 .2-.1.3-.3.4h-.1-.2l-.3.1v6.3l.3.1h.1.1.1c.2 0 .3.2.3.4v.6h-2.3V24l-.3-.1h-.2-.1c-.2-.1-.3-.2-.3-.4z"/></defs></svg>
