<svg xmlns="http://www.w3.org/2000/svg" viewBox="0 0 55 55"><circle cx="27.5" cy="27.5" r="27.2" fill="#192e54"/><g fill="#fff"><path d="M23.6 33.1c-.6-1.4.5-3.4-2.1-4.6-.9.6-2.2 3.6-2.2 4.8 0 1.4-.1 2.9.1 3.8.6-.3-.4-.8.5-.3-1.5-.1-.8 1.1-1.2 1.8-.7-.2-1.3.2-1.5.4-.6.7-.3 1.5 1 1.5-.4-.5-.1-1.4.5-1.5-.4.7.2 2 1.4 1.4-.3-.2-.7-1.6.6-1.6-1.2.5-.3 2 .9 1.3.3-.2.5-.3.8-.2.9.1 1.4-.4 1.5-.8.2-.9 0-1.6-.3-2.1-.2-.3-.7-2-.8-2.4-.1-.3.4-.9.8-1.5m9.8-4.7c-1.7.4-.7 3-2 4.1 1.4-.5 2.8-1 3.9-2-.7-.9-1.4-1.9-1.9-2.1m4.7 10.7c-.2-.3-.8-.6-1.5-.4-.4-.7.6-2.6-.8-2.5.9-.4-.5.4.1.7.1-.7.4-2.2.3-3.6-.5.4-1.1.8-1.5 1.3-.8.8-1.6 1.6-2.5 2.2.1.7-.1.9-.3 1.3-.3.5-.7 1-.3 1.8.2.4.6.6 1.4.4.3-.1.5 0 .8.1 1.3.5 1.9-1.3.7-1.7 1.3-.1 1.1 1.5.8 1.8 1.3.6 1.7-.7 1.2-1.4a.88.88 0 0 1 .6 1.3c.9.2 1.5-.7 1-1.3"/><path d="M32.3 26.1c.4.5.9 1 .9 1.4l1.1 1.7-3 3.3-.8-.1c.1-.7.1-1.6-.6-2-.3 1.1.1 1.9.1 2.7-.9-.3-1.4-1.4-1.8-2-.2 1.3-1.5 2.2-2.3 3.4-.2-1.2.6-3.2.4-3.9-.5.9-2 1.7-2 2.8-.7-.7-4.3.8-4.6-.2l1.6-5.4c.1-.8.6-1.1.7-1.6 2.5 1.3 7.5 1.1 10.3-.1m-2-13.2c-.6-.8-1.3-.8-1.8-1.8-.5-1.1-1.5-.5-1.6-.5-.2 0-1.1-.5-1.6.6-.4 1-1.1 1-1.7 1.8-.5.7-.3 1.5.1 2.8.2.9.1 1.3.7 1.7.7.5 1.7 1.2 2.7 1.2s2-.8 2.7-1.3c.6-.4.4-.9.6-1.8.2-1.2.4-2-.1-2.7m-5.9.1c.3 0 .4-.3 1-.1s.5.7 1.1 1.1c.1.1 0 .2-.1.2-.2-.1-.8.3-1.3 0s-.4-.7-.6-.8c-.3-.3-.3-.4-.1-.4zm4.6 4.2c-.1.1-.3.3-.5.4 0-.2 0-.5-.1-.7-.1-.3-.2-.2-.2 0a2.39 2.39 0 0 1-.2.9c-.2.1-.3.1-.9.2-.6 0-.7 0-.9-.1-.1-.2-.2-.6-.3-.9 0-.2-.1-.3-.2 0-.1.2-.1.5-.1.7-.2-.1-.4-.2-.5-.3-.4-.5-.1-.7 0-.8.3-.3.2-1 .9-1.1 0 .4.1.8.3 1 .1.1.1 0 .1-.1 0-.3 0-.6.1-.9.3 0 .3.1.5.1s.3-.1.5-.1c.2.3.2.6.2.9 0 .1.1.2.1.1.2-.2.3-.6.3-1 .7.1.6.8.9 1.1.1-.1.3.1 0 .6zm.5-4.1c-.2.2-.1.5-.6.8s-1.1 0-1.3.1c-.1 0-.2-.1-.1-.2.6-.4.4-.9 1-1.1s.7.1 1 .1c.1.1.1.2 0 .3z"/><path d="M29.8 24c-.9-.1-1.6-1.2-2.7-1.3-1 .1-1.8 1.2-2.6 1.4-1.5.3-2.6-.4-3.6-1.4 0 1.3.9 2.7 1.1 3.7 1 .4 2.3 1.3 5 1.2 2.6-.1 4.1-.6 5.1-1.1.2-1.1 1.2-2.8 1.1-4.1-.9 1.1-1.9 1.8-3.4 1.6m11.3 5.2c-.4-1.1-1.3-1.2-1.2-1.7.2-1.4.7-2.5-.3-3.8-.2-1.7-.8-2.3-1.9-3.8-.1.5-.1.9-.8 1.7.2-.9.6-4.5-2.5-5.2-.3-1.3-1.5-2.8-3.3-2.5-.6 2.1.4 5-4.2 5.1-4.5.1-3.7-2.9-4.4-4.9-1.8-.2-3 1.3-3.2 2.6-3.1.8-2.5 4.4-2.2 5.3-.7-.8-.7-1.1-.8-1.7-1 1.5-1.6 2.2-1.7 3.9-1 1.3-.8 2.4-.8 3.8 0 .5-.7.8-1.3 1.8-.2.3-.1.8-.1 1 .1.5.2.7.5 1.2.2.7.5 1 1 1.1.2.5.7.8.7.8.3.3 1.2.3 1-.5 0-.1-.2-.5-.8-.8 0-.2.1-.7.1-.9.2-.3.4-.8.5-1 0-.1 0-.3.3 0 .2.2 0 .3.2.6-.1 1.3 1 1.1 1 .7.1-.6.2-.9.2-1.4 0-.2 0-.4-.1-.6-.3-.8-.8-1.2-.6-1.6.3-.9 1.6-1.1 1.9-3.6-.3.1-1.3-.1-1.7-.4 1.4.1 2.9-.3 4.1-3 .6.3 1.9 1.9 3.6 1.8 1.2-.1 1.6-1.8 2.8-1.8s1.7 1.7 2.9 1.7c1.7 0 2.9-1.7 3.5-2 1.3 2.7 2.8 3 4.2 2.8-.5.3-1.4.6-1.7.5.4 2.4.9 2.3 1.1 3.2.1.4-.2.6-.6 1.3-.2.5-.3.7-.3.9v.8l.8-.4c.6 0 1 .5 1 1.1 0 .2-.1.4-.2.6-.3.2-.6.4-.6.5-.3.7 1.3 1 1.8.2.4 0 .9-.2 1.2-.9.4-.4.7-.5.8-1 .1-.2.2-1.1.1-1.5"/><path d="M38.2 29.6c-.2.1-1.7 1.1-2 1.2-4.4 2.1-9.8 4.4-10.6 4.8-1.7.8-.3 4.3 2.2 3.1 3.1-1.5 5.3-3.7 9-6.5.2-.2 1.7-1.2 1.9-1.4 0-.4-.6-.3-1-.6m4.4-2.7c-.2.1-1.1.9-1.7 1.2.3.2.4.5.5.8.7-.4 1.7-1.2 1.9-1.3.4-.3-.2-1.1-.7-.7"/></g></svg>
