<svg xmlns="http://www.w3.org/2000/svg" viewBox="0 0 54.8 55"><circle cx="27.4" cy="27.5" r="27.2" fill="#192e54"/><path d="M33.6 26.1c.5-.5.9-1.2 1-1.9.4 0 .7-.2.8-1.1.1-.8-.2-.9-.5-.9.6-2.5-1.7-3.6-3.1-3.6-.7 0-.7.5-.7.5-1.4 0-2.4.6-2.1 2.8.8.3 1.6.7 2.2 1.5.4.5.8 1.3.8 2.4l.1.1a2.13 2.13 0 0 1 .3 1.8c-.2.9-.5 1.6-1 1.9-.1.3-.3.6-.5.9.2.1.4.1.6.2.5.2 1.3.4 1.8.8 2.4-.2 4-1.1 4-1.5v-.7c0-1.6-2.4-1.4-3.7-2.4v-.8m6.9.1C40 20 35 15 28.8 14.5v1.4c0 .4-.3.6-.6.6h-.9c-.4 0-.6-.3-.6-.6v-1.4C20.5 15 15.5 20 15 26.2h0 1.4c.4 0 .6.3.6.6v.9c0 .4-.3.6-.6.6H15h0c.5 6.2 5.5 11.2 11.7 11.7v-1.4c0-.4.3-.6.6-.6h.9c.4 0 .6.3.6.6V40c6.2-.5 11.2-5.5 11.7-11.7h0-1.4c-.4 0-.6-.3-.6-.6v-.9c0-.4.3-.6.6-.6h1.4 0zm3.3.6v.9c0 .4-.3.6-.6.6h-.5c-.5 7.4-6.4 13.3-13.9 13.9v.5c0 .4-.3.6-.6.6h-.9c-.4 0-.6-.3-.6-.6v-.5c-7.4-.5-13.3-6.4-13.9-13.9h-.5c-.4 0-.6-.3-.6-.6v-.9c0-.4.3-.6.6-.6h.5c.5-7.4 6.4-13.3 13.9-13.9v-.5c0-.4.3-.6.6-.6h.9c.4 0 .6.3.6.6v.5c7.4.5 13.3 6.4 13.9 13.9h.4c.4 0 .7.3.7.6zm-19.3 3.6c-.2-.3-.3-.6-.5-.9-.5-.3-.9-1-1-1.9 0-.3-.2-1.1.3-1.8 0 0 0-.1.1-.1 0-1.1.2-1.9.7-2.6.5-.6 1.1-.9 1.9-1 .1-.1.2-.2.3-.2.4-2.3-1.8-3.3-3.2-3.3-.7 0-.7.5-.7.5-1.4 0-2.5.7-2.1 3.1-.4 0-.6.1-.5.9.2.9.4 1.1.8 1.1.1.7.5 1.4 1 1.9v.6c-1.4 1-3.7.8-3.7 2.4v.7c0 .4 1.6 1.3 4 1.5.6-.4 1.3-.7 1.8-.8.4 0 .6 0 .8-.1zm8.6 3.1v.7c0 .5-2.2 1.6-5.4 1.6s-5.4-1.1-5.4-1.6v-.7c0-1.6 2.4-1.4 3.7-2.4v-.6c-.5-.5-.9-1.2-1-1.9-.4 0-.7-.2-.8-1.1-.1-.8.2-.9.5-.9-.4-2.4.6-3.1 2.1-3.1 0 0 0-.5.7-.5 1.4 0 3.7 1 3.1 3.6.4 0 .6.1.5.9-.2.9-.4 1.1-.8 1.1-.1.7-.5 1.4-1 1.9v.6c1.4 1 3.8.8 3.8 2.4z" fill="#fff"/></svg>
