<svg xmlns="http://www.w3.org/2000/svg" viewBox="0 0 54.9 54.9"><circle cx="27.5" cy="27.4" r="27.2" fill="#192e54"/><path d="M2.7 17.4c.1-.2.1-.4.2-.6.1-.1-.1.7-.2.6zm39.7 11.1l-2.6-7.1c-.4-1.2-2.1-2.1-4.9-2.1s-4.5.9-4.9 2.1l-2.7 7.1c-.2.7.1 1.4.8 1.7.1.1.3.1.4.1a1.3 1.3 0 0 0 1.2-.8l1.3-3.6c.1-.3.5-.5.8-.4s.5.5.4.8l-3.3 9h3v5.8a1.58 1.58 0 0 0 1.6 1.6c.6 0 1.2-.4 1.4-.9.3.5.8.9 1.4.9a1.58 1.58 0 0 0 1.6-1.6v-5.9h2.9l-3.3-9c-.1-.3 0-.7.4-.8.3-.1.7 0 .8.4l1.3 3.6a1.3 1.3 0 0 0 1.2.8c.1 0 .3 0 .4-.1.7-.2 1-.9.8-1.6M34.9 18c-1.9 0-3.5-1.6-3.5-3.5S33 11 34.9 11s3.5 1.6 3.5 3.5c0 2-1.6 3.5-3.5 3.5zm-9.6 0c-1.9 0-3.5-1.6-3.5-3.5s1.6-3.5 3.5-3.5 3.5 1.6 3.5 3.5c0 2-1.6 3.5-3.5 3.5zm-1.5 1.1c-.9-.4-2 0-2.4.3l-6.6 6-.5-1.8c.2.1.4 0 .7-.1.4-.2.5-.7.3-1.1l-.7-1.1 1.3.1c.5 0 .8-.4.8-.8 0-.5-.4-.8-.8-.8l-1.3.1.7-1.1c.2-.4.1-.9-.3-1.1s-.9-.1-1.1.3l-.6 1.1-.6-1.1c-.2-.4-.7-.5-1.1-.3s-.5.7-.3 1.1l.7 1.1-1.3-.1c-.5 0-.8.4-.8.8 0 .5.4.8.8.8l1.3-.1-.7 1.1c-.2.4-.1.9.3 1.1s.9.1 1.1-.3l.5-1.1 1 3.8h0c-.6.5-.6 1.4-.1 2 .3.3.7.5 1 .5s.7-.1.9-.4l2.1-1.9-1.6 3.5c-.4.8-.5 1.3-.5 2.4v8.4a2.22 2.22 0 0 0 2.2 2.2 2.22 2.22 0 0 0 2.2-2.2v-8.9l4.3-9.5c.7-1 .2-2.4-.9-2.9zm-10.6 2.2c-.4 0-.6-.3-.6-.6 0-.4.3-.6.6-.6a.65.65 0 0 1 .6.6c.1.3-.2.6-.6.6z" fill="#fff"/></svg>
