<svg xmlns="http://www.w3.org/2000/svg" viewBox="0 0 54.8 54.5"><circle cx="27.4" cy="27.4" r="27.2" fill="#192e54"/><path d="M21.6 27.9c.3 1.1.8 2.2 1.4 3.2h-7.4v1.3h8.3c.2.3.5.6.8.9 1.3 1.3 2.8 2.3 4.5 2.9-.3.3-.5.6-.8.9-3.6 3.6-9.2 4.1-13.3 1.4l-4.5 1.2 1.3-4.5c-2.7-4.1-2.2-9.7 1.4-13.3 2.5-2.5 5.9-3.5 9.1-3-1.2 2.4-1.6 5.1-1.1 7.7h-5.7v1.3h6zM26 32a10.62 10.62 0 0 1 0-15.1 10.62 10.62 0 0 1 15.1 0c3.6 3.6 4.1 9.2 1.4 13.3l1.2 4.5-4.5-1.2c-4 2.6-9.6 2.1-13.2-1.5zm12.8-10.4H28.3v1.3h10.5v-1.3zm0 4.5H28.3v1.3h10.5v-1.3z" fill="#fff"/></svg>
