<svg xmlns="http://www.w3.org/2000/svg" viewBox="0 0 54.3 54.7"><circle cx="27.1" cy="27.4" r="27.2" fill="#192e54"/><path d="M27.7 20.1s3.4-2.6 8.1 0c-.8 3.4-6.5 3.7-8.1 0zm-1.3 10.7c1-2.8 5.1-3.1 8-2.1s5.9 3.5 4.9 6.4c-1 2.8-3.7-.2-6.5-1.2-3-1.1-7.4-.3-6.4-3.1m17.2 2.9l3.6-10.4c1.9-5.5-17.9-12.3-19.7-6.8l-3.6 10.4c-1.9 5.5 1 11.4 6.5 13.3 5.4 1.8 11.3-1.1 13.2-6.5m-5.3-12.5c5.3.9 6.4 5 6.4 5-3.6 1.9-7.9-1.9-6.4-5zm-1.9 7l-1.4-.7 1.4-3.8v4.5zm-11 10.6s-2.2 1.5-7.5.2S7.3 23.5 7.3 23.5 6 21.7 8.9 19.2s6.4-4.1 6.9-4.3c.4-.2 9.4-3.7 10.5-.1l-.8 3s-1.7-1-3.8.1-2.5 3.4-2.5 3.4 2 .6 3.4.1l1.7-.5-2.3 6.8s-1 .7-3.1 1.3c-2.1.5-4.3.9-4 2.3s1.4 2.1 2.4 2.6 4.8-.3 4.8-.3 1.6 3.8 3.3 5.2zm-6.7-16.2l1.6 3.7 1.5-.5-3.1-3.2zm-6.3-.2c-2.3 1.3-2.3 4.4-1.6 4.6s2.8-.8 4-1.6c1.7-1.3 2.3-3.4 2.3-3.4-.4-.4-2.5-.9-4.7.4zM1.5 17.5c.1-.2.1-.4.2-.6.1-.1-.2.8-.2.6z" fill="#fff"/></svg>
