<svg xmlns="http://www.w3.org/2000/svg" viewBox="0 0 54.8 54.6"><circle cx="27.4" cy="27.1" r="27.2" fill="#192e54"/><path d="M2.6 17.1c.1-.2.1-.4.2-.6s-.2.7-.2.6zm32.3 22.4v-5.3H19.2v5.3h-1.5v1.2h18.7v-1.2h-1.5M19.1 22.2c0-.1-.1-.1-.1-.2l-2-2.2c-1.4-2-1.9-3.8-2-4.7h2.5c0-.4-.1-.8-.1-1.2h-3.7v.6c0 .1.1 2.8 2.3 6 1.1 1.6 2.6 2.9 4 3.9l-.9-2.2m17.6-8.3c0 .3 0 .7-.1 1.2h2.5c-.2.9-.6 2.7-2 4.7-.6.8-1.2 1.5-2 2.2 0 .1-.1.2-.1.2-.3.8-.6 1.5-1 2.2 1.4-1 2.9-2.4 4-3.9 2.2-3.2 2.3-5.9 2.3-6v-.6h-3.6m-1.2-1.5H18.6s-.3 4.5 1.6 9.5 5.3 7.2 6.9 7.2 5-2.2 6.9-7.1c1.8-5.2 1.5-9.6 1.5-9.6M31.1 33c-.5-.5-1.1-1-1.6-1.7l-.9-1.5c-.6.2-1.1.3-1.5.3s-1-.1-1.5-.3c-.2.5-.5 1-.9 1.5-.5.6-1.1 1.2-1.6 1.7h8" fill="#fff"/></svg>
