<svg xmlns="http://www.w3.org/2000/svg" viewBox="0 0 54.8 55.1"><circle cx="27.4" cy="27.6" r="27.2" fill="#192e54"/><path d="M9.3 26.8c3.9 6.5 10.6 10.5 17.8 10.5 7.3 0 13.9-4 17.8-10.5-3.9-6.5-10.5-10.4-17.8-10.4-7.2 0-13.9 3.9-17.8 10.4h0zm17.8-2.7a2.69 2.69 0 1 1 0 5.4 2.69 2.69 0 0 1-2.7-2.7c0-1.4 1.2-2.7 2.7-2.7h0z" fill="#fff"/><path d="M31.1 19.7h0c2.4 1.4 4 4 4 7s-1.6 5.6-4 7c4.1-1 7.6-3.5 10-7-2.4-3.5-6-6-10-7m-8.5 14h0c-2.4-1.4-4-4-4-7s1.6-5.6 4-7c-4.1 1-7.6 3.5-9.9 7 2.3 3.5 5.9 6 9.9 7" fill="#192e54"/></svg>
