<svg xmlns="http://www.w3.org/2000/svg" viewBox="0 0 54.6 55"><circle cx="27.3" cy="27.4" r="27.2" fill="#192e54"/><path d="M36.1 34.5c-3 0-5.5-2.5-5.5-5.5s2.5-5.5 5.5-5.5 5.5 2.5 5.5 5.5-2.4 5.5-5.5 5.5m-8.8-4.1a1.54 1.54 0 0 1-1.5-1.5 1.54 1.54 0 0 1 1.5-1.5 1.54 1.54 0 0 1 1.5 1.5 1.47 1.47 0 0 1-1.5 1.5zm-8.8 4.1c-3 0-5.5-2.5-5.5-5.5s2.5-5.5 5.5-5.5S24 26 24 29s-2.5 5.5-5.5 5.5zm22.9-9.9h0L39 21.9h0c-.9-1.1-2.1-1.8-3.5-2.1l-1-1.2h0c-.5-.7-1.4-1.2-2.3-1.2-1.6 0-2.9 1.3-2.9 2.9 0 .2 0 .4.1.6h0l.3 1.2-.5.8c-.3-.7-1-1.2-1.8-1.2s-1.5.5-1.8 1.2c-.1-.3-.3-.6-.5-.8l.2-1.1c.1-.2.1-.5.1-.7 0-1.6-1.3-2.9-2.9-2.9-1 0-1.8.5-2.3 1.2h0l-.9 1.1c-1.2.2-2.3.8-3.2 1.7h0 0a1.38 1.38 0 0 0-.3.4l-2.6 2.8h0c-1 1.2-1.6 2.7-1.6 4.4 0 3.8 3.1 6.9 6.9 6.9 3.3 0 6.1-2.4 6.7-5.6.4.7 1.2 1.2 2.1 1.2s1.6-.5 2.1-1.2c.6 3.2 3.4 5.6 6.7 5.6 3.8 0 6.9-3.1 6.9-6.9 0-1.7-.6-3.3-1.6-4.4z" fill="#fff"/></svg>
