<svg xmlns="http://www.w3.org/2000/svg" viewBox="0 0 55 54.4"><circle cx="27.4" cy="27.2" r="27.2" fill="#192e54"/><g fill="#fff"><path d="M7.4 18.5H11l2.8 4.5 2.9-4.5H20l-4.5 6.8 4.9 7.4h-3.7l-3.1-4.9-3.2 4.9H7l4.9-7.4-4.5-6.8z"/><path d="M23.7 35.7c-.5.4-1.3.5-2.3.5h-.9c-.3 0-.6 0-.9-.1v-2.3c.3 0 .5.1.8.1h.8c.4 0 .6-.2.8-.4.2-.3.3-.5.3-.8 0-.2 0-.4-.1-.6l-3.6-9.6h3l2.3 7h0l2.2-7H29L24.7 34c-.1.7-.5 1.3-1 1.7zm8.9-17.2v5.2h0c.3-.5.8-.9 1.4-1.2.6-.2 1.2-.4 1.8-.4.5 0 1 .1 1.5.3s1 .5 1.4 1c.4.4.7 1 1 1.7s.4 1.5.4 2.4-.1 1.7-.4 2.4-.6 1.2-1 1.7c-.4.4-.9.8-1.4 1s-1 .3-1.5.3c-.8 0-1.4-.1-2-.4-.6-.2-1-.6-1.3-1.2h0v1.3h-2.7V18.5h2.8zm4.5 7.8c-.1-.4-.2-.7-.4-1s-.4-.5-.7-.7-.7-.3-1.1-.3-.8.1-1.1.3-.6.4-.8.7-.3.7-.4 1c-.1.4-.1.8-.1 1.2s0 .8.1 1.2.2.7.4 1.1a1.85 1.85 0 0 0 .8.7c.3.2.7.3 1.1.3s.8-.1 1.1-.3.5-.4.7-.7.3-.7.4-1.1.1-.8.1-1.2c.1-.4 0-.8-.1-1.2zm3.2-5.2c.2-.6.6-1.1 1-1.5s.9-.8 1.5-1 1.2-.4 2-.4c.9 0 1.7.1 2.3.4s1.1.6 1.5 1 .7.8.8 1.2c.2.4.2.9.2 1.2a6.96 6.96 0 0 1-.2 1.6l-.6 1.1c-.2.3-.5.5-.8.7s-.6.4-.8.6c-.3.2-.5.4-.7.7s-.3.6-.4 1v.8h-2.7v-.9c0-.6.1-1 .3-1.4s.4-.7.6-1 .5-.5.8-.7.5-.4.7-.6.4-.4.5-.7c.1-.2.2-.5.2-.9 0-.6-.1-1.1-.4-1.3-.3-.3-.7-.4-1.2-.4-.4 0-.7.1-.9.2a.9.9 0 0 0-.6.6c-.2.2-.3.5-.4.8s-.1.6-.1 1H40c-.1-.9 0-1.5.3-2.1zm5.9 8.5v3.1h-3.1v-3.1h3.1z"/></g></svg>
