<svg xmlns="http://www.w3.org/2000/svg" viewBox="0 0 54.7 54.7"><circle cx="27.4" cy="27.4" r="27.2" fill="#192e54"/><g fill="#fff"><path d="M11.946 40.197l26.941-26.941 1.485 1.485-26.941 26.941zM31.1 40.8l-3.3.9.9-3.3c-2-3.1-1.6-7.2 1.1-9.9A7.92 7.92 0 1 1 41 39.7c-2.7 2.7-6.8 3-9.9 1.1zM23.4 23c-.5-.5-.5-1.2 0-1.7l1.5-1.5c.5-.5 1.2-.5 1.7 0s.5 1.2 0 1.7L25.1 23c-.4.5-1.2.5-1.7 0m-2-2c-.5-.5-.5-1.2 0-1.7l1.7-1.7c.5-.5 1.2-.5 1.7 0s.5 1.2 0 1.7L23.1 21c-.5.4-1.2.4-1.7 0m-.2-3.9l-.9-.9 1-1c.5-.5 1.2-.5 1.7 0s.5 1.2 0 1.7l-1.4 1.4a1.92 1.92 0 0 0-.4-1.2m-3.1-2.8l5.1-5.1c.5-.5 1.2-.5 1.7 0s.5 1.2 0 1.7l-5 5-1.2-1.2c-.2-.2-.4-.3-.6-.4"/><path d="M16.6 15c0-.1 0-.1 0 0 .1 0 .1-.1 0 0h0c.1-.1.2-.1.2-.2h0c.5-.2 1.1-.1 1.5.3l2.5 2.5c.4.4.4 1 0 1.3-.5.5-1.2.5-1.6 0l-1-1c-.2-.2-.3-.2-.5-.2h-.1 0-.1 0-.1 0-.1 0-.1 0-.1 0-.1 0l-.1.1-.9.9c-.1.1-.1.3 0 .4s.3.1.4 0l.9-.9c.1-.1.3-.1.4 0l1 1c.3.3.6.4.9.5s.6.1.9 0c-.1.6 0 1.2.5 1.6.4.4 1 .6 1.6.5-.1.6 0 1.2.5 1.6.3.3.8.5 1.2.5l-2 2c-1.9 1.9-5 2-6.8.2L14 24.6c-1.4-1.4-1.6-2.9-1.5-3.9.1-1.2.6-2.2 1.1-2.6l3-3.1c-.1 0 0 0 0 0"/></g></svg>
