<svg xmlns="http://www.w3.org/2000/svg" viewBox="0 0 54.7 55"><circle cx="27.3" cy="27.4" r="27.2" fill="#192e54"/><path d="M29.5 15.3c0-1.7 1.4-3.2 3.2-3.2 1.7 0 3.2 1.4 3.2 3.2 0 1.7-1.4 3.2-3.2 3.2s-3.2-1.4-3.2-3.2zm11.9 9.3c-.5-.6-1.4-.7-2.1-.2l-3.8 1.7-3.1-6.4-3.2-1.9-7-.2c-.7 0-1.5.3-1.9.9l-2.7 3.7c-.4.6-.3 1.4.3 1.9h0c.6.4 1.4.3 1.9-.3l2.4-3.4 3.9.7-6 12-5.8-2.6c-.6-.3-1.4-.1-1.7.5l-.1.4c-.4.6-.2 1.4.5 1.8l6.7 3.9c.8.4 1.7.2 2.2-.5l4.4-5.9 5.2 3.5v7.1s0 1.9.9 2.3c.2.1.5.2.7.2a1.78 1.78 0 0 0 1.6-1l.7-8.7s0-1.9-.8-2.3L29 27.5l2.1-3.1L34 29c.5.6 1.4.7 2 .2l5.2-2.5c.7-.6.8-1.5.2-2.1z" fill="#fff"/></svg>
