<svg xmlns="http://www.w3.org/2000/svg" viewBox="0 0 54.7 54.7"><circle cx="27.3" cy="27.2" r="27.2" fill="#192e54"/><path d="M21.2 20.6v.8h3.2v2.1h-3.1v7.7l.7.1h.2.2.2c.4.1.6.3.6.7v1.4h-6.7v-1.3c0-.4.2-.6.6-.7h.2l.4-.1.7-.1v-7.7l-1-.2c-.3 0-.4-.1-.6-.2-.1-.1-.2-.3-.2-.5v-1.2h1.7v-.9c0-.7.1-1.4.3-1.9.2-.6.5-1.1.9-1.4.4-.4.9-.7 1.4-.9.6-.2 1.2-.3 1.9-.3.6 0 1.1.1 1.6.2v1.5c0 .2-.1.4-.3.4-.3.1-.5.1-.7.1-.4 0-.7 0-.9.1-.3.1-.5.2-.7.4s-.3.4-.4.7c-.2.4-.2.8-.2 1.2zm15.7 11.5v1.4h-2.8c-.3 0-.5 0-.7-.1s-.3-.2-.4-.5l-.3-.9c-.3.3-.6.5-.9.7-.2.2-.5.3-.9.5l-1 .3c-.4.1-.8.1-1.2.1-.5 0-1-.1-1.4-.2-.5-.2-.8-.4-1.1-.6-.3-.3-.6-.7-.7-1-.2-.4-.3-.9-.3-1.4s.1-.9.4-1.4c.2-.5.6-.9 1.2-1.2.6-.4 1.4-.7 2.2-.9.9-.2 2.1-.4 3.5-.4v-.7c0-.8-.2-1.4-.5-1.8s-.8-.6-1.5-.6a3.73 3.73 0 0 0-1.2.2c-.4.1-.6.3-.8.4l-.6.4c-.2.1-.4.2-.6.2s-.4 0-.5-.1a1.38 1.38 0 0 1-.3-.4l-.5-.9c1.4-1.3 3.1-2 5.1-2 .7 0 1.4.1 1.9.4.6.2 1 .6 1.4 1 .4.5.7 1 .9 1.5.2.6.3 1.2.3 1.9v5.4l.6.1h.3c.2 0 .4.2.4.6zm-6.5-3.6c-.6.1-1.1.3-1.4.4-.4.2-.6.3-.7.6-.1.2-.2.5-.2.7 0 .5.2.9.5 1.1s.7.3 1.2.3c.3 0 .6 0 .8-.1.3 0 .5-.1.7-.3l.6-.4.6-.6v-2.1l-2.1.4zm-2.1-11.8c.1-.3.3-.5.6-.8.2-.2.5-.4.8-.5s.7-.2 1-.2.7.1 1 .2.6.3.9.5c.3.3.5.5.6.8s.2.7.2 1c0 .4-.1.7-.2 1s-.3.5-.6.8c-.2.2-.5.4-.9.5-.3.1-.7.2-1 .2-.4 0-.7-.1-1-.2s-.6-.3-.8-.5c-.3-.2-.5-.5-.6-.8s-.2-.6-.2-1 0-.7.2-1zm1.6 1.8c.2.2.5.3.8.3s.6-.1.8-.3.3-.4.3-.8c0-.3-.1-.6-.3-.8s-.4-.3-.8-.3-.6.1-.8.3-.3.5-.3.8l.3.8z" fill="#fff"/></svg>
