<svg viewBox="0 0 310 310" xml:space="preserve" xmlns="http://www.w3.org/2000/svg" style="fill:#e4b200;">
    <g>
        <path d="M1.188 158.275c2.382 10.086 12.606 15.74 22.667 12.667 5.936-1.814 10.51-6.755 16-9.5 5.202-2.601 11.21-3.73 17-3.167 9.939.966 18.537 11.3 29 7.667 6.238-2.166 8.475-9.75 6.667-15.667-4.953-16.21-22.644-3.09-31.667-.333-2.27.694-5.635 1.464-8 1.333-11.84-.658-19.326-10.405-30-13.667-12.407-3.791-24.564 8.395-21.667 20.667m39 41c2.619 11.089 16.883 17.189 26.667 10.667 10.283-6.856 12.738-20.054 25-25.334 9.075-3.907 20.298 1.85 29-2.5 5.865-2.932 7.991-9.855 5.667-15.833-2.396-6.16-9.586-8.525-15.667-6.667-9.128 2.789-13.248 14.246-22 18.5-15.308 7.442-41.463-10.316-48.333 12.167-.86 2.813-1.015 6.115-.334 9m0-81c4.451 18.85 23.554 11.046 36.667 10.5 4.736-.197 9.91 1.45 14 3.667 8.568 4.64 12.513 16.813 23 17.833 7.525.732 14.548-5.072 13.667-13-1.933-17.393-23.87-7.985-34.667-12.333-6.571-2.647-11.433-7.022-15.666-12.667-3.75-5-6.456-10.894-12.334-13.833-13.07-6.535-27.944 5.95-24.667 19.833m1 138c4.02 13.152 23.367 16.95 31.334 5 6.153-9.23 3.445-21.263 11.333-30 3.082-3.414 6.724-6.826 11-8.667 4.804-2.068 10.705-2.554 15-5.667 4.872-3.53 6.018-10.376 3.667-15.666-2.983-6.71-11.575-8.708-17.667-5-8.768 5.337-8.189 19.565-15.166 27-8.79 9.367-21.479 7.557-31.834 13.166-6.543 3.545-9.863 12.644-7.667 19.834m0-195c4.07 17.236 23.055 12.269 34.667 20.333 5.14 3.569 9.364 8.949 11.667 14.667 2.096 5.204 2.499 11.948 7.333 15.667 9.177 7.059 21.211-.772 20-11.667-1.396-12.564-21.42-12.42-29-20-4.339-4.34-7.196-11.12-8.666-17-1.97-7.878-2-16.667-10.334-20.833-12.576-6.288-29.147 4.093-25.667 18.833m56 194c2.71 13.008 20.781 20.115 30.334 9 10.944-12.736-3.557-30.56 4.666-45 4.9-8.603 20.912-15.397 18.334-27-2.014-9.062-13.437-14.004-20.667-7-7.757 7.514-1.73 20.629-4.333 30-1.916 6.896-7.062 12.463-12.667 16.666-7.76 5.821-18.063 11.83-15.666 23.334m0-195c3.368 14.267 21.428 17.753 27.5 31 4.515 9.852-3.067 23.69 4.333 32 7.126 8.002 21.833 3.138 21.833-8 0-12.007-15.317-16.898-19.667-27-6.015-13.972 7.24-32.428-4.333-44-11.679-11.68-33.566-.518-29.666 16m40 232c1.676 17.248 26.481 23.012 33.333 6 6.573-16.319-13.559-26.944-12.667-43 .565-10.174 11.812-19.707 8.667-30-3.318-10.858-19.779-12.635-23.334-1-3.697 12.099 8.883 22.489 7.667 35-1.159 11.926-14.85 20.827-13.667 33m1-270c2.58 10.92 12.683 18.198 13.667 30 .996 11.948-18.007 28.922-4 38.667 6.912 4.808 18.01 1.243 19-7.667 1.453-13.08-10.913-22.25-7.667-36 2.87-12.152 16.707-21.31 12.334-35-6.648-20.81-38.284-10.964-33.334 10m21 174c2.431 10.938 14.98 14.886 19.334 25 5.987 13.906-6.705 30.932 3.666 43 10.308 11.994 31.974 2.667 30.668-13-1.31-15.724-21.785-19.337-27.668-33-1.813-4.212-2.778-9.421-2.333-14 .641-6.596 2.525-13.647-3-19-8.034-7.783-23.168-.257-20.667 11m0-79c2.223 10 16.11 14.139 22.334 5 5.693-8.36-.544-19.754 2.666-29 5.875-16.92 34.656-21.915 27.335-43-4.61-13.276-25.198-14.608-31.5-2-6.739 13.476 5.457 28.024-2.5 42-4.929 8.654-20.959 15.19-18.335 27m23 55c1.98 17.805 24.78 7.646 35.668 12.333 12.263 5.28 14.717 18.478 25 25.334 12.199 8.132 28.355-2.728 27-16.667-.205-2.11-.982-4.085-1.833-6-8.127-18.285-33.01-2.284-47.167-9.167-8.968-4.36-13.874-17.708-24-18.833-7.843-.871-15.636 4.285-14.668 13m0-33c.878 7.899 8.001 12.583 15.667 10.667 9.748-2.437 13.99-14.245 23-18.5 11.888-5.614 22.89 1.179 35-.167 9.059-1.006 14.836-10.414 14-19-1.125-11.578-14.377-19.144-25-13.833-11.194 5.597-14.125 20.059-26 25.666-9.076 4.286-18.876-.288-28 2.5-5.336 1.63-9.299 6.978-8.667 12.667m13 72c3.655 10.525 20.208 9.972 27.668 17 4.963 4.675 8.212 11.454 9.667 18 1.593 7.17 2.342 15.864 9.333 20 12.372 7.319 30.21-2.99 26.667-18-3.658-15.49-18.956-13.291-30.667-18.334-3.842-1.654-7.223-4.59-10-7.666-6.553-7.26-5.776-20.223-14-25.667-9.637-6.378-22.43 3.829-18.668 14.667m0-106c1.831 7.752 11.588 12.353 18.668 7.667 8.659-5.732 7.947-19.18 15-26.667 8.98-9.533 21.286-7.661 32-13.167 6.439-3.31 9.787-12.895 7.667-19.833-3.798-12.427-20.673-16.697-29.667-7-5.517 5.948-4.807 14.724-7.333 22-1.89 5.439-5.356 10.168-9.667 14-8.09 7.19-30.407 7.16-26.668 23m22 54c1.912 5.503 8.117 8.823 13.668 7.667 9.2-1.917 17.032-9.636 27-8.667 12.233 1.189 20.172 12.85 32 14 11.647 1.132 22.234-10.325 18.667-22-2.408-7.88-11.094-14.691-19.667-12.667-13.152 3.106-21.404 15.086-36 13.667-9.948-.967-18.168-11.428-29-7.667-6.061 2.105-8.693 9.832-6.667 15.667z"/>
    </g>
</svg>
