<svg xmlns="http://www.w3.org/2000/svg" viewBox="0 0 54.6 54.8"><circle cx="27.3" cy="27.5" r="27.2" fill="#192e54"/><path d="M23.6 32.3v1.4h-4.7v-7.8c0-.8-.2-1.3-.5-1.7s-.9-.6-1.6-.6c-.5 0-1 .1-1.4.4-.5.3-.9.6-1.3.9v6.5l.7.1h.2.2.1c.4.1.6.3.6.7v1.4H9.3v-1.4c0-.4.2-.6.6-.7h.1.2.2l.7-.1v-13l-.7-.2h-.2-.2-.1c-.4-.1-.6-.3-.6-.7v-1.4H14v6.8c.5-.4 1-.8 1.6-1.1s1.2-.4 2-.4c.6 0 1.2.1 1.8.3.5.2.9.5 1.3 1a5.3 5.3 0 0 1 .8 1.5c.2.7.3 1.3.3 1.9v5.4l.7.1.4.1h.1c.4 0 .6.2.6.6zM36 25c.3.8.4 1.6.4 2.6s-.1 1.8-.4 2.6-.7 1.5-1.2 2c-.5.6-1.2 1-1.9 1.3s-1.6.4-2.5.4-1.8-.1-2.5-.4c-.1 0-.2-.1-.4-.2l-.4.5c-.4.6-1 .9-1.8.9h-1.1l1.8-2.4h0c-.6-.6-1-1.2-1.2-2-.3-.8-.4-1.7-.4-2.6 0-1 .1-1.8.4-2.6.3-.7.7-1.4 1.2-2 .5-.5 1.1-.9 1.9-1.2s1.6-.5 2.5-.5 1.7.2 2.5.5l.6.3.7-1c.2-.3.4-.5.6-.6s.4-.2.7-.2H37l-2.1 2.8c.5.4.8 1.1 1.1 1.8zm-8.3 4.9L32 24c-.4-.3-1-.5-1.6-.5-1 0-1.8.4-2.3 1-.5.7-.8 1.7-.8 3 .1 1.1.2 1.8.4 2.4zm5.7-2.3c0-.7-.1-1.4-.3-2l-4.2 5.7c.4.2.9.3 1.5.3 1 0 1.8-.3 2.2-1 .6-.7.8-1.7.8-3zm9.1 6.5c0 .6-.1 1.1-.2 1.5-.1.5-.4.9-.7 1.2-.3.4-.7.6-1.2.8s-1.1.3-1.8.3h-.8c-.1 0-.3-.1-.7-.2l.1-1.6c0-.2.1-.3.2-.3s.3-.1.6-.1c.4 0 .6 0 .7-.1a.55.55 0 0 0 .5-.3c.1-.1.2-.3.3-.5 0-.2.1-.5.1-.8V23.8l-.7-.1h-.2-.2-.2c-.4-.1-.6-.3-.6-.7v-1.4h4.7l.1 12.5h0zm.4-16.2c0 .3 0 .5-.1.7s-.2.4-.4.6-.4.3-.6.4-.5.1-.7.1c-.3 0-.5 0-.7-.1s-.4-.2-.6-.4-.3-.4-.4-.6-.1-.5-.1-.7 0-.5.1-.7.2-.4.4-.6.4-.3.6-.4.5-.1.7-.1c.3 0 .5 0 .7.1s.4.2.6.4.3.4.4.6.1.5.1.7z" fill="#fff"/></svg>
