<svg xmlns="http://www.w3.org/2000/svg" viewBox="0 0 54.6 54.8"><circle cx="27.3" cy="27.5" r="27.2" fill="#192e54"/><path d="M26 31c1-2.8 5.1-3.1 8-2.1s5.9 3.5 4.9 6.4c-1 2.8-3.7-.2-6.5-1.2-2.9-1-7.3-.2-6.4-3.1m17.3 2.9l3.6-10.4C48.8 18 29 11.2 27.2 16.7l-3.6 10.4c-1.9 5.5 1 11.4 6.5 13.3 5.3 1.9 11.3-1 13.2-6.5M24 21.3l-2.3 6.8s-1 .7-3.1 1.3c-2.1.5-4.3.9-4 2.3s1.4 2.1 2.4 2.6 4.8-.3 4.8-.3 1.5 3.7 3.3 5.2c0 0-2.2 1.5-7.5.2S7 23.8 7 23.8 5.7 22 8.6 19.5s6.4-4.1 6.9-4.3c.4-.2 9.4-3.7 10.5-.1l-.8 3-1.2 3.2z" fill="#fff"/></svg>
