<svg xmlns="http://www.w3.org/2000/svg" viewBox="0 0 54.7 55"><circle cx="27.3" cy="27.5" r="27.2" fill="#192e54"/><path d="M37.1 36c-3.5 0-6.4-2.9-6.4-6.4s2.9-6.4 6.4-6.4 6.4 2.9 6.4 6.4-2.9 6.4-6.4 6.4m-20.4 0c-3.5 0-6.4-2.9-6.4-6.4s2.9-6.4 6.4-6.4 6.4 2.9 6.4 6.4-2.9 6.4-6.4 6.4zm10.1-14.9c-.8 0-2.6.6-2.6.6l.3-1.3c.1-.3.1-.5.1-.8a3.37 3.37 0 0 0-3.4-3.4c-1.1 0-2.1.5-2.7 1.4h0l-1.1 1.3c-1.4.3-2.7 1-3.7 2h0 0c-.1.1-.2.3-.4.4l-2.7 3.2h0c-1.2 1.4-1.9 3.2-1.9 5.1a7.92 7.92 0 0 0 7.9 7.9c3.9 0 7.1-2.8 7.8-6.5.5.8 1.4 1.4 2.4 1.4s1.9-.5 2.4-1.4c.7 3.7 3.9 6.5 7.8 6.5a7.92 7.92 0 0 0 7.9-7.9c0-1.9-.7-3.7-1.9-5.1h0l-2.8-3.1h0c-1-1.3-2.4-2.1-4.1-2.4l-1-1.3h0c-.6-.8-1.6-1.4-2.7-1.4a3.37 3.37 0 0 0-3.4 3.4c0 .2 0 .5.1.7h0l.3 1.4c.1-.1-1.7-.7-2.6-.7z" fill="#fff"/></svg>
