<svg xmlns="http://www.w3.org/2000/svg" viewBox="0 0 54.9 54.9"><circle cx="27.4" cy="27.5" r="27.2" fill="#192e54"/><path d="M46.5 31.2c-2.3-4.7-5.7-8.8-9.2-12.6-1.8-2-3.6-3.5-5.5-5.8-.5-.6-1-1.1-1.5-1.6-1.3-1.1-2.9-1.5-4.2-2.1-3.5-1.7-6.2-2.9-7-1.3-.8 1.7-2.6 3.8-2 4.8.2.3.5.6.9.9-.3.2-.6.5-.7.7-.2.4-.2.8.1 1.1.2.2.6.3.9.3.6 0 1.1-.3 1.7-.4s1.2-.1 1.9-.1c.8 0 1.7.1 2.5.1.7 0 1.5-.2 2.1-.6h.3c2.4 2.5 2.7 5.3 3.5 8.8.4 2 1.2 4.2 1.6 6.2-.3.1-.5.2-.8.2-2.1-1.6-4.2-2.3-6.1-2.2s-4.5 1.3-5.7 4.6c0 0 0-.9.3-1.5-1.7-.9-3.6-1.4-5.8-.4-1.3.6-4.7 3.8-2.1 10 2.3 5.4 6.9 6.6 7.4 5.9.6-.8 1.6-1.3 2.7-1.5 1-.2 2.1-.1 3.1-.2 3.8-.1 7.5-1.4 10.8-3.2s5.6-4 8.9-5.8c1.4-.8 2.5-3 1.9-4.3" fill="#fff"/></svg>
