<svg xmlns="http://www.w3.org/2000/svg" viewBox="0 0 54.7 55"><circle cx="27.5" cy="27.5" r="27.2" fill="#192e54"/><g fill="#fff"><path d="M3.8 22.7h2l1.5 2.5 1.6-2.5h1.9l-2.5 3.7 2.7 4.1H9l-1.7-2.7-1.7 2.7H3.7l2.7-4.1-2.6-3.7zm9.6 9.5c-.3.2-.7.3-1.2.3h-.5-.5v-1.3h.4.5c.2 0 .4-.1.5-.2s.1-.3.1-.5c0-.1 0-.2-.1-.4l-2-5.3h1.7l1.3 3.9h0l1.2-3.9h1.6L14 31.2c0 .5-.3.8-.6 1zm5-9.5v2.8h0c.2-.3.4-.5.8-.6.3-.1.7-.2 1-.2s.6.1.8.2c.3.1.5.3.8.5.2.2.4.5.5.9s.2.8.2 1.3a4.44 4.44 0 0 1-.2 1.3c-.1.4-.3.7-.5.9s-.5.4-.8.5-.6.2-.8.2c-.4 0-.8-.1-1.1-.2a1.21 1.21 0 0 1-.7-.7h0v.7h-1.5v-7.8h1.5v.2zm2.5 4.3c-.1-.2-.1-.4-.2-.6a.78.78 0 0 0-.4-.4c-.2-.1-.4-.1-.6-.1s-.4 0-.6.1a.78.78 0 0 0-.4.4c-.1.2-.2.4-.2.6-.1.2-.1.4-.1.7 0 .2 0 .5.1.7s.1.4.2.6a.78.78 0 0 0 .4.4c.2.1.4.1.6.1s.4 0 .6-.1a.78.78 0 0 0 .4-.4c.1-.2.2-.4.2-.6.1-.2.1-.4.1-.7s-.1-.5-.1-.7zm4.1 2.1c.2.2.6.3 1 .3.3 0 .6-.1.8-.2.2-.2.4-.3.4-.5h1.4a2.84 2.84 0 0 1-1 1.5c-.5.3-1 .4-1.6.4-.4 0-.8-.1-1.2-.2s-.7-.3-.9-.6l-.6-.9c-.1-.4-.2-.8-.2-1.2s.1-.8.2-1.2.3-.7.6-.9c.3-.3.6-.5.9-.6.4-.2.7-.2 1.2-.2s.9.1 1.3.3.7.4.9.8.4.7.5 1.1.1.8.1 1.3h-4.1c-.1.2 0 .6.3.8zm1.7-2.9c-.2-.2-.5-.3-.8-.3-.2 0-.5 0-.6.1-.2.1-.4.2-.4.3a.76.76 0 0 0-.2.4c0 .1-.1.3-.1.4h2.5c-.1-.4-.2-.7-.4-.9zm4.3-3.5v7.8h-1.6v-7.8H31zm1 1.3v-1.3h1.6V24H32zm1.6.8v5.7H32v-5.7h1.6zm2.3 4.3l.3.3c.1.1.2.1.4.2.1 0 .3.1.4.1h.3c.1 0 .2-.1.3-.1.1-.1.2-.1.2-.2.1-.1.1-.2.1-.3 0-.2-.2-.4-.5-.5l-1.3-.4c-.2-.1-.4-.1-.7-.2l-.6-.3c-.2-.1-.3-.3-.4-.4-.1-.2-.2-.4-.2-.6 0-.4.1-.7.2-.9s.3-.4.6-.6c.2-.1.5-.2.8-.3s.6-.1.9-.1.6 0 .9.1l.8.3c.3.1.4.3.6.6.1.2.2.5.3.9h-1.4c0-.3-.1-.5-.3-.6s-.4-.2-.7-.2h-.3c-.1 0-.2 0-.3.1s-.2.1-.2.2-.1.2-.1.3.1.3.2.3c.1.1.2.2.4.2s.4.1.6.1.4.1.6.1c.2.1.4.1.7.2l.6.3c.2.1.3.3.4.4.1.2.2.4.2.7 0 .4-.1.7-.2.9s-.3.5-.6.6c-.2.2-.5.3-.8.3-.3.1-.6.1-.9.1s-.7 0-1-.1l-.8-.3-.6-.6c-.2-.2-.2-.6-.3-.9H36c-.2 0-.2.2-.1.3zm6-6.4v4.2l2-2h1.8L43.6 27l2.4 3.6h-1.9l-1.6-2.5-.6.4v2h-1.6v-7.8h1.6z"/><path d="M46.3 24.1c.1-.3.3-.6.5-.9.2-.2.5-.4.8-.6.3-.1.7-.2 1.1-.2a4.44 4.44 0 0 1 1.3.2c.3.1.6.3.8.5s.4.4.5.7c.1.2.1.5.1.7 0 .4 0 .6-.1.9l-.3.6c-.1.2-.3.3-.4.4-.2.1-.3.2-.5.3a.78.78 0 0 0-.4.4c-.1.1-.2.3-.2.5v.4H48v-.5c0-.3.1-.6.2-.8s.2-.4.3-.5l.4-.4c.1-.1.3-.2.4-.3s.2-.2.3-.4c.1-.1.1-.3.1-.5 0-.3-.1-.6-.2-.7-.2-.2-.4-.2-.7-.2-.2 0-.4 0-.5.1s-.3.2-.4.3a.76.76 0 0 0-.2.4c0 .2-.1.4-.1.6H46c.1-.3.1-.7.3-1zm3.3 4.7v1.7h-1.7v-1.7h1.7z"/></g></svg>
