<svg xmlns="http://www.w3.org/2000/svg" viewBox="0 0 54.9 54.7"><circle cx="27.5" cy="27.4" r="27.2" fill="#192e54"/><g fill="#fff"><path d="M16.4 38.3L15 36.8l20.3-20.2 1.4 1.4zm14.3 2.6l-3.3.9.9-3.3c-2-3.1-1.6-7.2 1.1-9.9a7.92 7.92 0 1 1 11.2 11.2c-2.7 2.7-6.8 3.1-9.9 1.1zM23.8 24l-2 2c-1.9 1.9-5 2-6.8.2l-1.5-1.5c-1.4-1.4-1.6-2.9-1.5-3.9.1-1.2.6-2.2 1.1-2.6l3.1-3.1"/><path d="M16.2 15.1h0c.1 0 .1-.1 0 0h0c.1-.1.2-.1.2-.2h0m4.8 9.6c-.6-.6-.6-1.6 0-2.1l1.9-1.9c.6-.6 1.6-.6 2.1 0 .6.6.6 1.6 0 2.1l-1.9 1.9a1.66 1.66 0 0 1-2.1 0"/><path d="M19 22.6c-.6-.6-.6-1.6 0-2.1l2.2-2.2c.6-.6 1.6-.6 2.1 0s.6 1.6 0 2.1l-2.2 2.2c-.5.6-1.5.6-2.1 0"/><path d="M19 18.7l-1.1-1.1 1.3-1.3c.6-.6 1.6-.6 2.1 0 .6.6.6 1.6 0 2.1l-1.8 1.8c.1-.5 0-1.1-.5-1.5m-3.3-3.1l6.5-6.5c.6-.6 1.6-.6 2.1 0 .6.6.6 1.6 0 2.1l-6.4 6.4-1.5-1.5a3.04 3.04 0 0 0-.7-.5"/></g></svg>
