<svg xmlns="http://www.w3.org/2000/svg" viewBox="0 0 54.7 54.6"><circle cx="27.5" cy="27.4" r="27.2" fill="#192e54"/><g fill="#fff"><path d="M15.3 35.2c.3.3.5.7.5 1.3 0 .5-.1.9-.3 1.3a1.96 1.96 0 0 1-.9.9c-.4.2-.8.3-1.3.3-.8 0-1.5-.2-2.2-.5v-1.8h.3c.2 0 .2.1.3.3l.1 1.2.8.3c.2 0 .5.1.9.1.6 0 1.1-.2 1.5-.5s.6-.8.6-1.4c0-.3-.1-.6-.2-.8-.2-.2-.4-.4-.6-.5-.3-.1-.7-.3-1.2-.4a4.77 4.77 0 0 1-1.6-.8c-.3-.3-.5-.7-.5-1.3 0-.4.1-.8.3-1.1s.5-.6.9-.7c.4-.2.8-.3 1.2-.3.7 0 1.4.2 2.1.5v1.8h-.6c-.2 0-.2-.1-.3-.3l-.1-1.3c-.5-.2-1-.3-1.5-.3s-1 .1-1.3.4-.5.7-.5 1.1c0 .3.1.6.2.8.2.2.4.4.7.5s.7.3 1.1.4c.8.3 1.3.5 1.6.8zm7.1 3.5v.2h-.7c-.1 0-.2 0-.3-.1L19 36.2l-.2-.2h-.2-.3v2.4h.6c.2 0 .2.1.2.2v.2h-2.2v-.2c0-.1.1-.2.2-.2h.6v-7.5h-.6c-.2 0-.2-.1-.2-.2v-.2h1.4v5.1h.3c.1 0 .2 0 .3-.1l2-1.9h-.3c-.2 0-.2-.1-.2-.2v-.2h1.8v.2c0 .1-.1.2-.2.2h-.4l-2.1 2-.1.1-.1.1c.1.1.2.2.3.2l2.3 2.5h.4s.1.1.1.2zm5.2-5.4l-.1.3c0 .1 0 .1-.1.1h-.2c-.1 0-.2-.1-.3-.1h-.3c-.4 0-.8.1-1.1.4s-.5.7-.7 1.2v3.3h.6c.1 0 .1 0 .2.1 0 0 .1.1.1.2v.2h-2.3v-.2c0-.1 0-.1.1-.2 0 0 .1-.1.2-.1h.6v-4.9h-.6c-.1 0-.1 0-.2-.1 0 0-.1-.1-.1-.2v-.2h1.1.1v.1 1.2c.4-1 1-1.5 1.9-1.5.5.2.8.2 1.1.4zm3.1 5.4v.2h-2.2v-.2c0-.1.1-.2.2-.2h.6v-4.8h-.6c-.2 0-.2-.1-.2-.2v-.2h1.4v5.3h.6c.1-.1.2 0 .2.1zm-1.5-7.2c-.1-.1-.1-.2-.1-.4 0-.1 0-.3.1-.4s.2-.1.4-.1c.1 0 .3 0 .4.1s.1.2.1.4c0 .1 0 .3-.1.4s-.2.2-.4.2-.3-.1-.4-.2zm8.4 1.9c0 .1-.1.2-.2.2H37l-2.2 5.3h-.5l-2.2-5.3h-.4c-.1 0-.2-.1-.2-.2v-.2h2v.2c0 .1-.1.2-.2.2h-.6l1.8 4.2c.1.1.1.3.1.5.1-.3.1-.4.2-.5l1.8-4.2H36c-.2 0-.2-.1-.2-.2v-.2h2v.2h-.2zm5 .4c.4.5.6 1.1.6 1.8 0 .1-.1.2-.2.2h-4.2c0 .9.2 1.5.5 2 .4.5.9.7 1.6.7.3 0 .6 0 .9-.2.3-.1.6-.2.7-.4.1-.1.1-.1.2-.1s.1 0 .1.1l.2.2c-.2.2-.5.4-.9.6-.4.1-.8.2-1.2.2-.9 0-1.5-.3-2-.9s-.7-1.3-.7-2.2c0-.5.1-1 .3-1.5.2-.4.5-.8.9-1s.9-.4 1.4-.4c.8.2 1.4.4 1.8.9zm-3.1.2c-.4.4-.6.8-.6 1.5h3.8c0-.6-.2-1.1-.5-1.4s-.7-.5-1.3-.5c-.5-.1-1 0-1.4.4zM16.3 18.1c0 .7-.2 1.2-.7 1.5-.5.4-1.1.5-1.9.5h-3.3v-.5c0-.1.1-.2.2-.2l.6-.1v-5.8l-.6-.1c-.1 0-.2-.1-.2-.2v-.5h3c.8 0 1.4.2 1.9.5s.7.8.7 1.4c0 .4-.1.8-.3 1.1s-.6.5-1 .6c1 .3 1.6.9 1.6 1.8zm-2.9-2c.5 0 .9-.1 1.2-.3s.4-.5.4-.9-.1-.8-.4-1-.7-.3-1.2-.3H12v2.5h1.4zm1.5 1c-.3-.2-.7-.3-1.2-.3h-1.6v2.6h1.6c.5 0 .9-.1 1.2-.3s.4-.6.4-1c0-.5-.2-.8-.4-1z"/><path d="M19.4 19.6h0v.5H17v-.4-.1l.1-.1.6-.1v-3.7l-.6-.1s-.1 0-.1-.1v-.1-.4h1.7v4.5l.6.1c.1-.1.1 0 .1 0zm-1.7-6c0-.1-.1-.2-.1-.2 0-.1 0-.2.1-.3 0-.1.1-.2.1-.2.1-.1.1-.1.2-.1s.2-.1.2-.1.2 0 .2.1c.1 0 .2.1.2.1s.1.1.1.2.1.2.1.3 0 .2-.1.2c0 .1-.1.2-.1.2-.1.1-.1.1-.2.1s-.2.1-.2.1-.2 0-.2-.1c-.1 0-.2-.1-.2-.1 0-.1-.1-.1-.1-.2zm5.7 1.3c.6 0 1 .2 1.3.5.3.4.4.8.4 1.4v2.6a1.76 1.76 0 0 0 .6.1c.1 0 .2.1.2.2v.4h-1.7v-3.3c0-.8-.4-1.3-1.1-1.3-.5 0-1 .2-1.4.7v3.1s.2 0 .6.1c.1 0 .2.1.2.2v.4h-2.4v-.4c0-.1 0-.2.1-.2l.6-.1v-3.7c-.3-.1-.5-.1-.6-.1s-.1-.1-.1-.2v-.4h1.3c.1 0 .2.1.2.2l.1.6h0c.5-.5 1.1-.8 1.7-.8zm6.7.6v-2.2l-.7-.1c-.1 0-.2-.1-.2-.2v-.5h1.7v6.8a1.76 1.76 0 0 0 .6.1c.1 0 .1.1.1.2v.5h-1.2c-.1 0-.2-.1-.2-.2l-.1-.6c-.5.6-1.1.9-1.7.9s-1.1-.2-1.4-.7c-.4-.5-.5-1.1-.5-2 0-.8.2-1.4.6-1.9s1-.8 1.7-.8c.4.1.9.3 1.3.7zm0 3.2v-2.5c-.3-.4-.7-.6-1.2-.6s-.9.2-1.1.5-.4.8-.4 1.5c0 1 .3 1.6.8 1.8.2.1.3.1.6.1h0c.4 0 .9-.3 1.3-.8zm5.3-3.7c.3.1.5.3.7.4a3.04 3.04 0 0 1 .5.7c.1.3.2.6.2 1v.3s-.1.1-.2.1h-3.5c0 .3 0 .6.1.9l.3.6c.2.2.3.3.5.4s.4.1.7.1c.2 0 .4 0 .6-.1a.76.76 0 0 0 .4-.2c.2-.1.3-.1.3-.2.1-.1.2-.1.2-.1.1 0 .1 0 .2.1l.3.3a1.38 1.38 0 0 1-.4.3c-.2.1-.4.2-.5.3-.2.1-.4.1-.6.1s-.4.1-.6.1c-.4 0-.7-.1-1-.2s-.6-.3-.8-.5-.4-.5-.5-.9a3.73 3.73 0 0 1-.2-1.2c0-.4.1-.7.2-1s.3-.6.5-.8.5-.4.8-.5.6-.2 1-.2c.3.1.6.1.8.2zm-1.8.9c-.3.3-.4.6-.5 1.1h2.8c0-.2 0-.4-.1-.6s-.2-.4-.2-.5c-.1-.1-.3-.2-.4-.3-.2-.1-.3-.1-.6-.1h0c-.4.1-.8.2-1 .4zm-3.3 11.8c0 .1 0 .3.1.7.5.1.9.2 1.3.2.3 0 .6-.1.9-.2s.5-.3.7-.5.3-.5.4-.7c.1-.3.2-.6.2-1s-.1-.7-.2-1-.3-.6-.4-.7c-.2-.2-.4-.4-.6-.5s-.5-.2-.8-.2h-.5c-.1 0-.3 0-.4.1-.1 0-.2.1-.3.2-.2.2-.3.2-.4.3 0 0-.1 0-.1.1h-.1c-.1 0-.1 0-.2-.1l-.5-.5c.3-.3.6-.6 1-.8s.9-.3 1.4-.3.9.1 1.3.3.7.4 1 .7.5.7.6 1.1.2.9.2 1.4-.1 1-.2 1.4c-.2.4-.4.8-.7 1.1s-.7.6-1.1.7c-.4.2-.9.2-1.4.2-.6 0-1.3-.2-2.1-.5v-1.7h.5c.3 0 .4.1.4.2zm-6.5-.6c0-.2.1-.2.2-.3h.1s.2 0 .3-.1l2.2-5.1c0-.1.1-.1.1-.2 0 0 .1-.1.2-.1h.9l-.8 2 1.5 3.5c.2 0 .3.1.3.1h.1c.2 0 .2.1.2.3v.5h-2.3v-.5c0-.2.1-.2.2-.3h.2l-.8-1.8c0-.1 0-.1-.1-.1v-.1s0-.1-.1-.3l.2.2c0 .1-.1.2-.1.2l-.7 1.8.3.1c.2 0 .2.1.2.3v.5h-2.3v-.6zm-5.6-3.6V23h1.2.2c.1 0 .1.1.2.2L21 25c0 .1.1.1.1.1h.2.3v-1.3h-.3-.1-.1c-.2 0-.2-.1-.2-.3V23h2.5v.5c0 .2-.1.2-.2.3h-.1-.1-.1-.3v5h.3.1.1.1c.2 0 .2.1.2.3v.5h-1.8v-3.9h-.2-.2l-.1.1-.7.8h.1c.2 0 .2.1.2.3v.5h-1.1 0-.1-1v-.5c0-.2.1-.2.2-.3h.1.2.2l.7-.9.2-.2c.1-.1.1-.1.2-.1l-.2-.2s0-.1-.1-.1 0 .2 0 .2l-1-1.4h-.3-.2-.1c-.1-.2-.2-.3-.2-.4zm-2.9 0V23h2.5v.5c0 .2-.1.2-.2.3h-.1-.1-.3v5h.3.1.1.1c.2 0 .2.1.2.3v.5h-1.8v-6h-.3-.1-.1c-.2.1-.3 0-.3-.1zm-3.4 4.1c-.2-.1-.5-.2-.6-.4-.2-.2-.3-.4-.4-.7s-.2-.6-.2-.9v-.2-.1s0-.1.1-.1h.1 2.9c0-.5-.2-.8-.4-1.1-.2-.2-.5-.3-.9-.3-.2 0-.3 0-.5.1-.1 0-.3.1-.4.1 0 0-.1 0-.1.1 0 0-.1 0-.1.1-.1 0-.1.1-.2.1h-.1s-.1 0-.1-.1l-.3-.4c.1-.2.3-.3.4-.4.2-.1.3-.2.5-.2s.3-.1.5-.1h.5c.3 0 .6.1.9.2s.5.3.7.5.4.5.5.8.2.7.2 1.1c0 .3-.1.6-.2.9s-.2.5-.5.7c-.2.2-.4.4-.7.5s-.6.2-1 .2c0-.2-.3-.3-.6-.4zm1.6-.9c.2-.2.3-.5.4-.8h-2.1c0 .1 0 .3.1.4 0 .1.1.2.2.3s.2.2.3.2c.1.1.3.1.4.1.3.1.5 0 .7-.2zm24.6-1.1c.1 0 .2.1.2.2h0 0v.1.2l5 2v1l-5 2v.2.1.1h0c0 .1-.1.2-.2.2h-.5v-2.2h.5c.1 0 .2.1.2.2h0v.1.1l3-1.2c.1 0 .2-.1.4-.1l.4-.1c-.3-.1-.6-.1-.8-.2l-2.9-1v.1.1h0c0 .1-.1.2-.2.2h-.5v-2.2h.4v.1z"/><path d="M39.4 20.9c.1-.2.2-.4.4-.5.2-.2.4-.3.6-.3.3-.1.5-.1.8-.1h.2.1l.1.1v.1 2.4c.4 0 .7-.2.9-.3.2-.2.3-.4.3-.7 0-.2 0-.3-.1-.4 0-.1-.1-.2-.1-.3 0 0-.1-.1-.1-.2v-.2-.1s0-.1.1-.1l.3-.3c.1.1.3.2.3.4a.76.76 0 0 1 .2.4c0 .1.1.3.1.4v.4c0 .3-.1.6-.2.8a.9.9 0 0 1-.6.6c.1.1.3.2.4.3s.2.3.3.4.1.3.1.5v.5c0 .2 0 .4-.1.5 0 .2-.1.3-.2.4s-.2.2-.4.3c-.1.1-.3.1-.5.1-.1 0-.3 0-.5-.1a.78.78 0 0 1-.4-.4c-.1-.2-.2-.5-.3-.8s-.1-.7-.1-1.2h-.1c-.3 0-.5.1-.6.2s-.2.3-.2.5 0 .3.1.4c0 .1.1.2.1.3l.1.2c0 .1.1.1.1.2v.2l-.1.1-.3.2a3.04 3.04 0 0 1-.5-.7c-.1-.2-.2-.5-.2-.9 0-.3.1-.6.2-.8s.3-.3.5-.4c-.2-.2-.4-.3-.5-.6-.1-.2-.2-.5-.2-.8-.1-.3-.1-.5 0-.7zm.8 1.3c.2.2.4.3.7.3v-1.7h-.4c-.1 0-.2.1-.3.1-.1.1-.2.1-.2.3-.1.1-.1.2-.1.4.1.3.2.5.3.6zm1.5 2c0 .2.1.4.2.5s.1.2.2.2.2.1.2.1c.2 0 .3-.1.4-.2s.1-.2.1-.4c0-.1 0-.3-.1-.4 0-.1-.1-.2-.2-.3s-.2-.2-.3-.2-.3-.1-.5-.1h-.2c.1.3.1.6.2.8zm-2.3-7.8l.7.1h.1v.1.2.3c0 .2.1.4.2.5s.3.3.5.4h1.8l.1-.4c0-.1.1-.2.2-.2h.4v2.2h-.5c-.1 0-.2-.1-.2-.2l-.1-.4h-2.5l-.1.4c0 .1-.1.2-.2.2h-.5v-1.2c0-.1 0-.2.1-.2 0 0 .1-.1.2-.1l.5-.1c-.3-.1-.5-.3-.6-.5s-.2-.4-.2-.7c0-.1 0-.3.1-.4zm0-2.9c.1-.2.2-.4.4-.6s.3-.3.6-.4c.2-.1.5-.1.8-.1h.2.1l.1.1v.1 2.5c.4 0 .7-.1.9-.3s.3-.5.3-.8c0-.2 0-.3-.1-.4 0-.1-.1-.2-.1-.3 0 0 0-.1-.1-.1 0 0 0-.1-.1-.1 0-.1-.1-.1-.1-.2v-.1s0-.1.1-.1l.4-.3c.1.1.2.2.3.4a.76.76 0 0 1 .2.4c0 .1.1.3.1.5v.4c0 .3 0 .6-.1.8s-.2.4-.4.6-.4.3-.7.4-.6.2-1 .2c-.3 0-.5 0-.8-.1-.2-.1-.5-.2-.6-.4-.2-.2-.3-.4-.4-.6s-.2-.5-.2-.8c.1-.3.1-.5.2-.7zm.8 1.3c.2.2.4.3.7.3v-1.8c-.1 0-.2 0-.4.1-.1 0-.2.1-.3.2s-.2.2-.2.3c-.1.1-.1.3-.1.4.1.2.1.4.3.5z"/></g></svg>
